<svg xmlns="http://www.w3.org/2000/svg" xmlns:xlink="http://www.w3.org/1999/xlink" viewBox="0 0 1440 900"><defs><style>.cls-1{mask:url(#mask);filter:url(#luminosity-noclip-4);}.cls-2,.cls-36,.cls-4,.cls-6,.cls-65{mix-blend-mode:multiply;}.cls-2,.cls-63{fill:url(#åçûìßííûé_ãðàäèåíò_101);}.cls-3{mask:url(#mask-2);}.cls-4{fill:url(#åçûìßííûé_ãðàäèåíò_156);}.cls-5{mask:url(#mask-3);filter:url(#luminosity-noclip-6);}.cls-6{fill:url(#åçûìßííûé_ãðàäèåíò_156-2);}.cls-7{fill:none;}.cls-8{isolation:isolate;}.cls-9{opacity:0.6;}.cls-39,.cls-41,.cls-60,.cls-9{mix-blend-mode:overlay;}.cls-10,.cls-38,.cls-39,.cls-61,.cls-80{opacity:0.3;}.cls-11,.cls-40,.cls-72,.cls-75,.cls-79,.cls-80{fill:#fff;}.cls-12{fill:#2a2c7b;}.cls-13,.cls-73{opacity:0.2;}.cls-14{clip-path:url(#clip-path);}.cls-15{clip-path:url(#clip-path-2);}.cls-16{clip-path:url(#clip-path-3);}.cls-17{clip-path:url(#clip-path-4);}.cls-18{clip-path:url(#clip-path-5);}.cls-19{clip-path:url(#clip-path-6);}.cls-20{clip-path:url(#clip-path-7);}.cls-21{clip-path:url(#clip-path-8);}.cls-22{clip-path:url(#clip-path-9);}.cls-23{clip-path:url(#clip-path-10);}.cls-24{clip-path:url(#clip-path-11);}.cls-25{clip-path:url(#clip-path-12);}.cls-26{clip-path:url(#clip-path-13);}.cls-27{clip-path:url(#clip-path-14);}.cls-28{clip-path:url(#clip-path-15);}.cls-29{clip-path:url(#clip-path-16);}.cls-30{clip-path:url(#clip-path-17);}.cls-31{clip-path:url(#clip-path-18);}.cls-32{clip-path:url(#clip-path-19);}.cls-33{clip-path:url(#clip-path-20);}.cls-34{clip-path:url(#clip-path-21);}.cls-35{clip-path:url(#clip-path-22);}.cls-36{opacity:0.59;}.cls-37{fill:#ba1f8e;}.cls-38{fill:url(#linear-gradient);}.cls-39{fill:url(#linear-gradient-2);}.cls-40,.cls-76{opacity:0.7;}.cls-42{fill:url(#linear-gradient-3);}.cls-43{fill:url(#linear-gradient-4);}.cls-44{fill:url(#Degradado_sin_nombre_8);}.cls-45{fill:url(#linear-gradient-5);}.cls-46{fill:url(#linear-gradient-6);}.cls-47{fill:url(#Degradado_sin_nombre_8-2);}.cls-48{fill:url(#linear-gradient-7);}.cls-49{fill:url(#linear-gradient-8);}.cls-50{fill:url(#Degradado_sin_nombre_8-3);}.cls-51{fill:url(#linear-gradient-9);}.cls-52{fill:url(#linear-gradient-10);}.cls-53{fill:url(#Degradado_sin_nombre_8-4);}.cls-54{fill:url(#linear-gradient-11);}.cls-55{fill:url(#linear-gradient-12);}.cls-56{fill:url(#Degradado_sin_nombre_8-5);}.cls-57{fill:url(#linear-gradient-13);}.cls-58{fill:url(#linear-gradient-14);}.cls-59{fill:url(#Degradado_sin_nombre_8-6);}.cls-60{fill:url(#linear-gradient-15);}.cls-61{fill:#fbfbfb;}.cls-62{mask:url(#mask-4);}.cls-63{mix-blend-mode:color-dodge;}.cls-64{mask:url(#mask-5);}.cls-65{fill:url(#åçûìßííûé_ãðàäèåíò_76);}.cls-66,.cls-73{fill:#282973;}.cls-67,.cls-69{opacity:0.13;}.cls-67{fill:url(#åçûìßííûé_ãðàäèåíò_102);}.cls-68{fill:url(#åçûìßííûé_ãðàäèåíò_102-2);}.cls-69{fill:url(#åçûìßííûé_ãðàäèåíò_102-3);}.cls-70{mask:url(#mask-6);}.cls-71{opacity:0.94;fill:url(#åçûìßííûé_ãðàäèåíò_102-4);}.cls-72{opacity:0.8;}.cls-74{mask:url(#mask-7);}.cls-75{opacity:0.5;}.cls-77{fill:url(#Degradado_sin_nombre_244);}.cls-78{fill:url(#Degradado_sin_nombre_243);}.cls-79{opacity:0.6;}.cls-81{filter:url(#luminosity-noclip-5);}.cls-82{filter:url(#luminosity-noclip-3);}.cls-83{filter:url(#luminosity-noclip-2);}.cls-84{filter:url(#luminosity-noclip);}</style><filter id="luminosity-noclip" x="352.67" y="-8642" width="2.01" height="32766" filterUnits="userSpaceOnUse" color-interpolation-filters="sRGB"><feFlood flood-color="#fff" result="bg"/><feBlend in="SourceGraphic" in2="bg"/></filter><mask id="mask" x="352.67" y="-8642" width="2.01" height="32766" maskUnits="userSpaceOnUse"><g class="cls-84"/></mask><radialGradient id="åçûìßííûé_ãðàäèåíò_101" cx="583.68" cy="241.37" r="0.79" gradientTransform="matrix(-0.98, 0.9, 0.84, 0.92, 720.93, -392.19)" gradientUnits="userSpaceOnUse"><stop offset="0" stop-color="#fff"/><stop offset="1"/></radialGradient><filter id="luminosity-noclip-2" x="311.18" y="-8642" width="26.78" height="32766" filterUnits="userSpaceOnUse" color-interpolation-filters="sRGB"><feFlood flood-color="#fff" result="bg"/><feBlend in="SourceGraphic" in2="bg"/></filter><mask id="mask-2" x="311.18" y="-8642" width="26.78" height="32766" maskUnits="userSpaceOnUse"><g class="cls-83"/></mask><linearGradient id="åçûìßííûé_ãðàäèåíò_156" x1="980.59" y1="156.13" x2="983.02" y2="173.98" gradientTransform="matrix(1.15, 0, 0, 1.36, -809.06, 141.28)" xlink:href="#åçûìßííûé_ãðàäèåíò_101"/><filter id="luminosity-noclip-3" x="337.26" y="-8642" width="43.21" height="32766" filterUnits="userSpaceOnUse" color-interpolation-filters="sRGB"><feFlood flood-color="#fff" result="bg"/><feBlend in="SourceGraphic" in2="bg"/></filter><mask id="mask-3" x="337.26" y="-8642" width="43.21" height="32766" maskUnits="userSpaceOnUse"><g class="cls-82"/></mask><linearGradient id="åçûìßííûé_ãðàäèåíò_156-2" x1="917.51" y1="203.9" x2="885.76" y2="180.84" gradientTransform="matrix(0.74, -0.68, 0.68, 0.74, -433.37, 840.72)" xlink:href="#åçûìßííûé_ãðàäèåíò_101"/><clipPath id="clip-path"><path class="cls-7" d="M1500.53,825.71c-.07.84-.14,1.68-.23,2.5s-.18,1.87-.29,2.79c-.07.48-.12,1-.21,1.43l0,0c-2.28.52-5.54,1.25-9.72,2.12-23.46,4.81-75.51,13.5-140.12,12.06-75.28-1.69-119.52-14.89-131.15-18.84-.21-1.89-.34-3.8-.46-5.74,15.17,2,60.6,6.82,140.35,7.48,70.24.59,113.23-1.67,132.64-3.08,4.1-.3,7.16-.57,9.19-.75Z"/></clipPath><clipPath id="clip-path-2"><path class="cls-7" d="M1464.84,908.31A143,143,0,0,1,1449,923.45l-.3,0c-4.2-.44-8.83-.85-13.78-1.19-19.54-1.32-43.74-1.3-63.44,3.81-40.3,10.44-119.73-.71-108-22.94,9.33-17.59,86.3,1.66,126.21,6.59,18.29,2.25,40.89,1.5,60,0,5.3-.41,10.31-.87,14.9-1.35A1.23,1.23,0,0,1,1464.84,908.31Z"/></clipPath><clipPath id="clip-path-3"><path class="cls-7" d="M1480.37,887.46a142.57,142.57,0,0,1-9.92,14.21l-.25,0c-4.77.6-9.44,1-14.07,1.3-37.79,2.33-72.77-4.47-127.55-8.46-38.23-2.78-64.54,2-80.08,6.85-2.16-2.74-4.21-5.55-6.18-8.44-.11-.16-.22-.35-.34-.5,51.38-8.08,112.23,1.52,169.54,4.08,18.47.82,37.24-1.67,54.19-5.41,5-1.09,9.83-2.32,14.46-3.6A.53.53,0,0,0,1480.37,887.46Z"/></clipPath><clipPath id="clip-path-4"><path class="cls-7" d="M1479.37,738.2h-.16l-5,.39c-25.22,1.91-90.42,6.61-153,9.14-46.73,1.87-72.54.21-85.91-1.48a141.36,141.36,0,0,1,34.92-42.12c19.59-.64,45.59.57,78.08,6.25,52.41,9.16,90.22,8.37,110.84,6.56,1.16-.09,2.28-.2,3.33-.31a.66.66,0,0,0,.25,0l2.74,3.22,2.23,2.62,4.06,4.77h-.2l-4.36.2c-14.62.5-36.67.41-67.3-1.82-63.56-4.68-83.31-11.09-109.35-5.52s-38.59,21.46-38.59,21.46,10.83,4.1,84.08,2.3c56.68-1.39,113-7.16,135.59-9.69l4.63-.55h.15c.21.25.37.5.55.76.37.54.73,1.07,1.07,1.61a0,0,0,0,1,0,0C1478.46,736.72,1478.93,737.45,1479.37,738.2Z"/></clipPath><clipPath id="clip-path-5"><path class="cls-7" d="M1262.33,832s50.75,1.39,92.94,2,77,3.48,77,3.48-35.92,10.07-87.81,6.65S1262.33,832,1262.33,832Z"/></clipPath><clipPath id="clip-path-6"><path class="cls-7" d="M1500.6,802.22h0q-3.52.33-8.17.68c-15.21,1.14-39.68,2.51-75.19,3.26-67.28,1.41-138-3.42-136.13-5.11s63.72.28,127-3.14c39-2.1,67.14-6.28,83-9.17,2.87-.53,5.36-1,7.41-1.44,0,0,0,0,0,0,.69,3.49,1.21,7,1.6,10.61C1500.35,799.34,1500.49,800.76,1500.6,802.22Z"/></clipPath><clipPath id="clip-path-7"><path class="cls-7" d="M1496.13,776.65c-8.85,1-28.44,2-71.77,1.87-83-.3-152.8.18-171.34,8.78s5.41,19.29,34.51,21.64,120,4.63,120,4.63-147.12.37-189.38-3.49c0-2.39.16-4.79.34-7.16.07-1,.16-2,.28-3,.11-1.36.27-2.73.45-4.1v0c.16-1.35.34-2.69.57-4,.07-.54.16-1.07.25-1.62.25-1.46.5-2.89.8-4.33v0c.16-.85.34-1.69.55-2.51.48-2.24,1-4.43,1.59-6.61v0c.12-.38.21-.77.32-1.14,24.93-2.32,79.41-6.7,128.63-5.86,52.22.89,113.59-8.23,137.47-12.2.44,1,.85,2,1.26,3A142.25,142.25,0,0,1,1496.13,776.65Z"/></clipPath><clipPath id="clip-path-8"><path class="cls-7" d="M1390.83,792.74a4.12,4.12,0,1,1-4.12-4.11A4.11,4.11,0,0,1,1390.83,792.74Z"/></clipPath><clipPath id="clip-path-9"><path class="cls-7" d="M1399.55,855.36a2.05,2.05,0,1,1-2.9,0A2,2,0,0,1,1399.55,855.36Z"/></clipPath><clipPath id="clip-path-10"><path class="cls-7" d="M1246.1,804.83a4.12,4.12,0,1,1-4.12-4.12A4.12,4.12,0,0,1,1246.1,804.83Z"/></clipPath><clipPath id="clip-path-11"><path class="cls-7" d="M1305.31,869.16a4.12,4.12,0,1,1-4.11-4.11A4.12,4.12,0,0,1,1305.31,869.16Z"/></clipPath><clipPath id="clip-path-12"><path class="cls-7" d="M1423.78,880.91a4.12,4.12,0,1,1-4.12-4.12A4.11,4.11,0,0,1,1423.78,880.91Z"/></clipPath><clipPath id="clip-path-13"><path class="cls-7" d="M1422.34,728.9a7.51,7.51,0,1,1-7.51-7.52A7.51,7.51,0,0,1,1422.34,728.9Z"/></clipPath><clipPath id="clip-path-14"><path class="cls-7" d="M1398.59,690.1a7.52,7.52,0,1,1-7.51-7.51A7.51,7.51,0,0,1,1398.59,690.1Z"/></clipPath><clipPath id="clip-path-15"><path class="cls-7" d="M1256,863.84a4.12,4.12,0,1,1-4.11-4.12A4.11,4.11,0,0,1,1256,863.84Z"/></clipPath><clipPath id="clip-path-16"><path class="cls-7" d="M1427.89,787.3a4.12,4.12,0,1,1-4.11-4.11A4.12,4.12,0,0,1,1427.89,787.3Z"/></clipPath><clipPath id="clip-path-17"><path class="cls-7" d="M1281.09,851.38a1.73,1.73,0,1,1-1.72-1.73A1.72,1.72,0,0,1,1281.09,851.38Z"/></clipPath><clipPath id="clip-path-18"><path class="cls-7" d="M1331.14,815.77a1.73,1.73,0,1,1-1.73-1.73A1.72,1.72,0,0,1,1331.14,815.77Z"/></clipPath><clipPath id="clip-path-19"><path class="cls-7" d="M1429.48,826.23a.68.68,0,1,1-.68-.68A.67.67,0,0,1,1429.48,826.23Z"/></clipPath><clipPath id="clip-path-20"><path class="cls-7" d="M1365.91,886.68a1.66,1.66,0,1,1-1.66-1.66A1.65,1.65,0,0,1,1365.91,886.68Z"/></clipPath><clipPath id="clip-path-21"><circle class="cls-7" cx="1328.48" cy="895.47" r="1.66"/></clipPath><clipPath id="clip-path-22"><path class="cls-7" d="M1266.4,900.06a1.66,1.66,0,1,1-1.66-1.66A1.65,1.65,0,0,1,1266.4,900.06Z"/></clipPath><linearGradient id="linear-gradient" x1="710.42" y1="517.93" x2="1412.33" y2="517.93" gradientUnits="userSpaceOnUse"><stop offset="0.23" stop-color="#282973" stop-opacity="0"/><stop offset="0.5" stop-color="#292a76" stop-opacity="0.25"/><stop offset="1" stop-color="#2a2c7b" stop-opacity="0.8"/></linearGradient><linearGradient id="linear-gradient-2" x1="68.25" y1="711.29" x2="341.18" y2="711.29" gradientUnits="userSpaceOnUse"><stop offset="0" stop-color="#282973" stop-opacity="0"/><stop offset="0.18" stop-color="#282a75" stop-opacity="0.19"/><stop offset="0.54" stop-color="#292b78" stop-opacity="0.52"/><stop offset="0.83" stop-color="#2a2c7a" stop-opacity="0.72"/><stop offset="1" stop-color="#2a2c7b" stop-opacity="0.8"/></linearGradient><linearGradient id="linear-gradient-3" x1="340.37" y1="-123.51" x2="456.91" y2="-123.51" gradientTransform="translate(-213.83 361.7) rotate(-28.17)" gradientUnits="userSpaceOnUse"><stop offset="0" stop-color="#282973" stop-opacity="0.8"/><stop offset="0.48" stop-color="#0e0e85" stop-opacity="0.27"/><stop offset="0.77" stop-color="#00008e" stop-opacity="0"/></linearGradient><linearGradient id="linear-gradient-4" x1="341.98" y1="-123.18" x2="419.2" y2="-123.18" gradientTransform="translate(-213.83 361.7) rotate(-28.17)" gradientUnits="userSpaceOnUse"><stop offset="0" stop-color="#00008e" stop-opacity="0.8"/><stop offset="0.02" stop-color="#00008e" stop-opacity="0.78"/><stop offset="0.53" stop-color="#00008e" stop-opacity="0.22"/><stop offset="0.77" stop-color="#00008e" stop-opacity="0"/></linearGradient><linearGradient id="Degradado_sin_nombre_8" x1="343.23" y1="-122.62" x2="353.11" y2="-122.62" gradientTransform="translate(-213.83 361.7) rotate(-28.17)" gradientUnits="userSpaceOnUse"><stop offset="0" stop-color="#fff"/><stop offset="1" stop-color="#ffdc62" stop-opacity="0.3"/></linearGradient><linearGradient id="linear-gradient-5" x1="286.52" y1="415.96" x2="466.18" y2="415.96" xlink:href="#linear-gradient-3"/><linearGradient id="linear-gradient-6" x1="289" y1="416.46" x2="408.03" y2="416.46" xlink:href="#linear-gradient-4"/><linearGradient id="Degradado_sin_nombre_8-2" x1="290.93" y1="417.33" x2="306.17" y2="417.33" xlink:href="#Degradado_sin_nombre_8"/><linearGradient id="linear-gradient-7" x1="1057.75" y1="893.74" x2="1303.64" y2="893.74" xlink:href="#linear-gradient-3"/><linearGradient id="linear-gradient-8" x1="1061.14" y1="894.43" x2="1224.06" y2="894.43" xlink:href="#linear-gradient-4"/><linearGradient id="Degradado_sin_nombre_8-3" x1="1063.79" y1="895.63" x2="1084.63" y2="895.63" xlink:href="#Degradado_sin_nombre_8"/><linearGradient id="linear-gradient-9" x1="1492.39" y1="468.52" x2="1608.93" y2="468.52" xlink:href="#linear-gradient-3"/><linearGradient id="linear-gradient-10" x1="1494" y1="468.84" x2="1571.22" y2="468.84" xlink:href="#linear-gradient-4"/><linearGradient id="Degradado_sin_nombre_8-4" x1="1495.25" y1="469.41" x2="1505.13" y2="469.41" xlink:href="#Degradado_sin_nombre_8"/><linearGradient id="linear-gradient-11" x1="1105.45" y1="387.05" x2="1259.54" y2="387.05" xlink:href="#linear-gradient-3"/><linearGradient id="linear-gradient-12" x1="1107.58" y1="387.48" x2="1209.67" y2="387.48" xlink:href="#linear-gradient-4"/><linearGradient id="Degradado_sin_nombre_8-5" x1="1109.24" y1="388.23" x2="1122.3" y2="388.23" xlink:href="#Degradado_sin_nombre_8"/><linearGradient id="linear-gradient-13" x1="1177.97" y1="433.64" x2="1231.28" y2="433.64" xlink:href="#linear-gradient-3"/><linearGradient id="linear-gradient-14" x1="1178.7" y1="433.79" x2="1214.03" y2="433.79" xlink:href="#linear-gradient-4"/><linearGradient id="Degradado_sin_nombre_8-6" x1="1179.27" y1="434.05" x2="1183.79" y2="434.05" xlink:href="#Degradado_sin_nombre_8"/><linearGradient id="linear-gradient-15" x1="-26.64" y1="212.5" x2="585.8" y2="212.5" xlink:href="#linear-gradient"/><filter id="luminosity-noclip-4" x="352.67" y="351.65" width="2.01" height="1.94" filterUnits="userSpaceOnUse" color-interpolation-filters="sRGB"><feFlood flood-color="#fff" result="bg"/><feBlend in="SourceGraphic" in2="bg"/></filter><mask id="mask-4" x="352.67" y="351.65" width="2.01" height="1.94" maskUnits="userSpaceOnUse"><g class="cls-1"><path class="cls-2" d="M352.67,352.6c.08,1.3,1.74,1.31,2,0C354.61,351.33,353,351.32,352.67,352.6Z"/></g></mask><filter id="luminosity-noclip-5" x="352.71" y="-8642" width="1.95" height="32766" filterUnits="userSpaceOnUse" color-interpolation-filters="sRGB"><feFlood flood-color="#fff" result="bg"/><feBlend in="SourceGraphic" in2="bg"/></filter><mask id="mask-5" x="352.71" y="-8642" width="1.95" height="32766" maskUnits="userSpaceOnUse"><g class="cls-81"/></mask><radialGradient id="åçûìßííûé_ãðàäèåíò_76" cx="583.67" cy="241.4" r="0.8" gradientTransform="matrix(-0.98, 0.9, 0.84, 0.92, 720.93, -392.19)" gradientUnits="userSpaceOnUse"><stop offset="0" stop-color="#fff"/><stop offset="0.78"/></radialGradient><linearGradient id="åçûìßííûé_ãðàäèåíò_102" x1="873.11" y1="158.89" x2="903.72" y2="204.59" gradientTransform="matrix(0.74, -0.68, 0.68, 0.74, -433.37, 840.72)" gradientUnits="userSpaceOnUse"><stop offset="0" stop-color="#fff"/><stop offset="1" stop-color="#fff"/></linearGradient><linearGradient id="åçûìßííûé_ãðàäèåíò_102-2" x1="879.74" y1="183.94" x2="901.93" y2="217.06" xlink:href="#åçûìßííûé_ãðàäèåíò_102"/><linearGradient id="åçûìßííûé_ãðàäèåíò_102-3" x1="879.82" y1="147.27" x2="895.94" y2="171.34" xlink:href="#åçûìßííûé_ãðàäèåíò_102"/><mask id="mask-6" x="311.18" y="345.85" width="26.78" height="40.99" maskUnits="userSpaceOnUse"><g class="cls-3"><ellipse class="cls-4" cx="324.57" cy="366.35" rx="21.39" ry="11.9" transform="translate(-131.24 544.66) rotate(-69.83)"/></g></mask><linearGradient id="åçûìßííûé_ãðàäèåíò_102-4" x1="980.59" y1="156.13" x2="983.02" y2="173.98" gradientTransform="matrix(1.15, 0, 0, 1.36, -809.06, 141.28)" xlink:href="#åçûìßííûé_ãðàäèåíò_102"/><filter id="luminosity-noclip-6" x="337.26" y="338.98" width="43.21" height="69.87" filterUnits="userSpaceOnUse" color-interpolation-filters="sRGB"><feFlood flood-color="#fff" result="bg"/><feBlend in="SourceGraphic" in2="bg"/></filter><mask id="mask-7" x="337.26" y="338.98" width="43.21" height="69.87" maskUnits="userSpaceOnUse"><g class="cls-5"><path class="cls-6" d="M371.2,350.34l.61.68c.18.19.34.39.5.59s.4.47.59.72.18.22.26.34l.38.49.37.51.25.36.21.3a34.58,34.58,0,0,1,4.23,8.44h0c.25.71.47,1.43.67,2.16q.18.68.33,1.35c.09.36.16.74.24,1.11a36.43,36.43,0,0,1,.56,4.27c.05.72.07,1.44.08,2.16a34.16,34.16,0,0,1-.38,5.44A34.79,34.79,0,0,1,376.71,390c-.18.35-.36.71-.55,1.05s-.4.72-.61,1.07c-.1.18-.21.35-.31.52a35.45,35.45,0,0,1-15.47,13.58c-.71.32-1.44.62-2.17.89a35.46,35.46,0,0,1-3.59,1.12c-.36.09-.71.18-1.06.25a.65.65,0,0,1-.19,0l-.11,0c-.19,0-.36.09-.56.12-.43.09-.88.17-1.33.24l.81-.19c.6-.15,1.2-.32,1.8-.5s1.2-.39,1.78-.62c.74-.27,1.47-.57,2.18-.89a35.17,35.17,0,0,0,9.33-6.17,34.72,34.72,0,0,0,3.88-4.19,32.06,32.06,0,0,0,2.25-3.22q.49-.78.93-1.59c.19-.34.37-.69.55-1.05.34-.69.67-1.38,1-2.08h0a34.86,34.86,0,0,0,2.13-7h0a34.87,34.87,0,0,0,.59-4.78h0c0-.77,0-1.54,0-2.31a34.25,34.25,0,0,0-.24-3.78,33.62,33.62,0,0,0-.64-3.72c-.11-.45-.22-.9-.34-1.35,0,0,0,0,0-.06a35,35,0,0,0-3.75-8.79l-.31-.51c-.36-.58-.74-1.14-1.14-1.7l-.13-.2c-.24-.33-.48-.66-.73-1-.43-.57-.89-1.12-1.37-1.67l-.4-.44c-.06-.08-.14-.16-.21-.24s-.17-.19-.27-.28-.41-.45-.63-.67h0c-.17-.18-.35-.35-.53-.52-.43-.43-.87-.83-1.32-1.22-.25-.22-.5-.44-.76-.64-.45-.38-.91-.73-1.38-1.08l-.23-.17-.28-.21a34.58,34.58,0,0,0-4.86-2.92l-.58-.28c-.39-.19-.78-.36-1.17-.53s-.94-.39-1.42-.57-1.07-.39-1.61-.56-.82-.26-1.23-.37-.63-.18-1-.26h0l-.47-.12-.51-.11-.65-.14-.32-.07-.23,0c-.67-.12-1.35-.23-2-.31l-.23,0H347c-.66-.08-1.33-.14-2-.18h-.37c-.91,0-1.82-.05-2.73,0h-.41l-.59,0c-.36,0-.72,0-1.07.07l-.3,0h0l-.52.05h0l-.86.11h-.06q-.4,0-.81.12a33.05,33.05,0,0,1,4.17-.72h0l.52-.05h0l.3,0,1.08-.08.58,0h.41c.91,0,1.82,0,2.73,0h0l.35,0,.47,0c.5,0,1,.08,1.53.14l.08,0c.61.07,1.22.16,1.82.27a3.35,3.35,0,0,1,.44.07l.23,0,.32.07c.31.06.63.12.94.2l.22.05.47.11h0l.62.17c.54.14,1.07.3,1.6.47s.89.3,1.34.47,1.12.43,1.68.67l1.14.51A35.87,35.87,0,0,1,365,345l.78.55.28.2.29.23c.71.52,1.41,1.08,2.08,1.67.27.23.53.47.8.72s.35.32.53.5l.54.53.05.05.08.08.51.54A3.45,3.45,0,0,1,371.2,350.34Z"/></g></mask><linearGradient id="Degradado_sin_nombre_244" x1="322" y1="306.79" x2="382.32" y2="306.79" gradientTransform="translate(-65.7 43.22) rotate(-3.07)" gradientUnits="userSpaceOnUse"><stop offset="0.02" stop-color="#fff" stop-opacity="0"/><stop offset="0.19" stop-color="#fff" stop-opacity="0.12"/><stop offset="0.58" stop-color="#fff" stop-opacity="0.44"/><stop offset="0.99" stop-color="#fff" stop-opacity="0.8"/></linearGradient><linearGradient id="Degradado_sin_nombre_243" x1="391.7" y1="272.57" x2="413.6" y2="272.57" gradientTransform="translate(-65.7 43.22) rotate(-3.07)" gradientUnits="userSpaceOnUse"><stop offset="0" stop-color="#fff" stop-opacity="0"/><stop offset="0.15" stop-color="#fff" stop-opacity="0.12"/><stop offset="0.47" stop-color="#fff" stop-opacity="0.44"/><stop offset="0.94" stop-color="#fff" stop-opacity="0.94"/><stop offset="1" stop-color="#fff"/></linearGradient></defs><title>404 BG</title><g class="cls-8"><g id="Layer_2" data-name="Layer 2"><g class="cls-9"><g class="cls-10"><circle class="cls-11" cx="1361.69" cy="813.99" r="180.99"/></g><path class="cls-12" d="M1501.06,813.48c0,1.23,0,2.46,0,3.67,0,1.05-.07,2.08-.11,3.1-.07,1.26-.14,2.49-.23,3.75l-.14,1.71c-.07.84-.14,1.68-.23,2.5s-.18,1.87-.29,2.79c-.07.48-.12,1-.21,1.43s-.11,1-.18,1.49a139.9,139.9,0,0,1-10.38,36.48q-1.87,4.35-4.06,8.53c-.86,1.67-1.75,3.29-2.66,4.91-.71,1.23-1.42,2.44-2.15,3.62a142.57,142.57,0,0,1-9.92,14.21q-2.73,3.39-5.61,6.64a141.07,141.07,0,0,1-32.36,26.7h0a141.09,141.09,0,0,1-23,11.16c-1.5.57-3,1.11-4.51,1.62-1.3.43-2.6.86-3.9,1.25-1,.34-2.12.64-3.17.93a142.08,142.08,0,0,1-82.81-1.87q-4.51-1.47-8.89-3.28a134.65,134.65,0,0,1-13.69-6.45c-1.3-.69-2.57-1.4-3.83-2.15a11,11,0,0,1-1-.61l-.52-.32h0c-.47-.28-.93-.55-1.41-.87-1.78-1-3.53-2.19-5.27-3.35l-.2-.14c-.82-.57-1.64-1.14-2.44-1.75h0a144.78,144.78,0,0,1-15.14-12.43,146.41,146.41,0,0,1-12.93-13.89c-.39-.48-.8-1-1.17-1.48-2.16-2.74-4.21-5.55-6.18-8.44-.11-.16-.22-.35-.34-.5q-3.15-4.7-5.93-9.65c-.54-1-1.12-2-1.62-3-.25-.44-.48-.87-.7-1.32-.07-.12-.12-.26-.19-.37a12.1,12.1,0,0,1-.61-1.19,140.32,140.32,0,0,1-13.57-44.13c-.23-1.64-.41-3.3-.57-5-.21-1.89-.34-3.8-.46-5.74,0-.6-.07-1.19-.07-1.78s-.09-1.48-.11-2.24c-.05-1.41-.07-2.85-.07-4.29,0-.82,0-1.64,0-2.46,0-.41,0-.8.05-1.21,0-2.39.16-4.79.34-7.16.07-1,.16-2,.28-3,.11-1.36.27-2.73.45-4.1v0c.16-1.35.34-2.69.57-4,.07-.54.16-1.07.25-1.62.25-1.46.5-2.89.8-4.33v0c.16-.85.34-1.69.55-2.51.48-2.24,1-4.43,1.59-6.61v0c.12-.38.21-.77.32-1.14.16-.59.35-1.18.51-1.78.5-1.66,1-3.33,1.59-5,1.07-3.24,2.28-6.45,3.61-9.58v0c1.16-2.8,2.44-5.59,3.8-8.28a1.42,1.42,0,0,1,.12-.25c.45-1,.93-1.89,1.43-2.83a.12.12,0,0,0,.05-.09c.25-.5.52-1,.82-1.48A142,142,0,0,1,1303,684c.09,0,.18-.07.27-.12a140.84,140.84,0,0,1,56.29-11.65c.55,0,1.12,0,1.66,0a140.62,140.62,0,0,1,63.52,15.83.1.1,0,0,0,.07,0c2.28,1.21,4.53,2.44,6.75,3.79a.49.49,0,0,1,.2.14,136.08,136.08,0,0,1,11.41,7.52,0,0,0,0,1,0,0l1.69,1.26h0l.93.73c1.14.89,2.28,1.78,3.4,2.71.62.5,1.21,1,1.8,1.51s.85.73,1.26,1.09q4.17,3.6,8,7.53l0,0c.34.35.64.64,1,1s.71.73,1.05,1.12c1,1,2,2.09,3,3.19l2.23,2.62c1.33,1.53,2.6,3.15,3.86,4.77.43.54.86,1.11,1.3,1.68.18.26.38.51.57.76s.52.7.77,1.07c.69.93,1.37,1.89,2.06,2.87.22.34.47.69.7,1,.37.55.73,1.07,1.07,1.62,0,0,0,0,0,0,.32.48.64,1,.93,1.46a4.2,4.2,0,0,1,.3.48c1.21,1.87,2.35,3.79,3.44,5.72.18.35.39.67.57,1,.75,1.34,1.48,2.69,2.17,4.06.32.59.61,1.21.91,1.8.71,1.39,1.39,2.83,2,4.26l.23.5c.3.64.57,1.28.84,1.92.44,1,.85,2,1.26,3a142.25,142.25,0,0,1,5.47,16.21c.37,1.37.71,2.74,1,4.1.09.35.16.67.22,1,.23,1,.46,2,.67,3l.27,1.36c.09.39.16.8.23,1.19q1,5.37,1.64,10.88c.16,1.34.27,2.69.39,4,.09,1,.16,2.12.23,3.19s.11,2.05.15,3.08v.45c0,1,.07,2,.07,3C1501.06,812.43,1501.06,813,1501.06,813.48Z"/><g class="cls-13"><path class="cls-12" d="M1499.62,833.92a139.9,139.9,0,0,1-10.38,36.48.54.54,0,0,1-.11.05h0c-3.54.84-7.67,1.78-12.36,2.76-24.68,5.15-65,11.61-117.18,13.16a805.69,805.69,0,0,1-125.14-6.59c-.32-.55-.61-1.12-.89-1.69a12.1,12.1,0,0,1-.61-1.19,140.32,140.32,0,0,1-13.57-44.13c28.92,11.77,82.9,29,144.45,25.46a578.58,578.58,0,0,0,125.78-21.3c3.62-1,7-2.06,10-3Z"/></g><g class="cls-13"><path class="cls-12" d="M1501.06,813.48c0,1.23,0,2.46,0,3.67,0,1.05-.07,2.08-.11,3.1l-8.94.35c-24.86.93-73.51,2.32-132.32,1.94-61.92-.39-116-1.62-141.38-2.26-.06-.73-.09-1.48-.11-2.24-.05-1.41-.07-2.85-.07-4.29,0-.82,0-1.64,0-2.46,29.79,1.28,86.62,3.29,141.54,3.08,55.57-.18,107-3.12,132.84-4.83l8.48-.6h0c0,1,0,2,0,3C1501.06,812.43,1501.06,813,1501.06,813.48Z"/></g><g class="cls-13"><g class="cls-14"><polygon class="cls-11" points="1500.53 831.95 1476.46 848.08 1227.39 848.08 1218.33 834.55 1500.53 822.06 1500.53 831.95"/></g></g><g class="cls-13"><g class="cls-15"><polygon class="cls-11" points="1287.89 885.5 1251.7 909.75 1251.7 885.5 1287.89 885.5"/><polygon class="cls-11" points="1454.54 885.5 1464.84 900.88 1464.84 912.8 1429.51 936.47 1254.19 936.47 1251.7 932.75 1251.7 909.75 1287.89 885.5 1454.54 885.5"/></g></g><g class="cls-13"><g class="cls-16"><polygon class="cls-11" points="1254.03 884.36 1241.98 892.43 1241.98 884.36 1254.03 884.36"/><polygon class="cls-11" points="1480.37 895.02 1465.01 905.32 1245.63 905.32 1241.98 899.87 1241.98 892.43 1254.03 884.36 1480.37 884.36 1480.37 895.02"/></g></g><g class="cls-13"><g class="cls-17"><polygon class="cls-11" points="1271.1 703.49 1235.23 727.52 1235.23 703.49 1271.1 703.49"/><polygon class="cls-11" points="1461.2 703.49 1479.37 730.61 1479.37 738.2 1462.35 749.6 1235.23 749.6 1235.23 727.52 1271.1 703.49 1461.2 703.49"/></g></g><g class="cls-13"><g class="cls-18"><polygon class="cls-11" points="1432.24 837.52 1417.2 847.59 1267.79 847.59 1262.33 839.44 1262.33 832.01 1432.24 832.01 1432.24 837.52"/><polygon class="cls-11" points="1417.2 847.59 1432.24 837.52 1432.24 847.59 1417.2 847.59"/></g></g><g class="cls-13"><g class="cls-19"><polygon class="cls-11" points="1301.61 787.3 1279.25 802.29 1279.25 787.3 1301.61 787.3"/><polygon class="cls-11" points="1500.6 802.22 1492.6 807.58 1279.25 807.58 1279.25 802.29 1301.61 787.3 1500.6 787.3 1500.6 802.22"/></g></g><g class="cls-13"><g class="cls-20"><polygon class="cls-11" points="1250.26 757.47 1218.15 778.99 1218.15 757.47 1250.26 757.47"/><polygon class="cls-11" points="1494.38 757.47 1496.13 760.08 1496.13 776.65 1440.48 813.94 1218.15 813.94 1218.15 778.99 1250.26 757.47 1494.38 757.47"/></g></g><g class="cls-13"><path class="cls-12" d="M1488.33,755.05c-22.81,3.56-88,12.8-146.76,12.34-47.7-.36-91.65.64-116.17,1.39,1.07-3.24,2.28-6.45,3.61-9.58v0c1.16-2.8,2.44-5.59,3.8-8.28,20.8.69,71.84,1.87,123.41-.34,49.9-2.1,100.25-9.3,122.69-12.84a4.2,4.2,0,0,1,.3.48c1.21,1.87,2.35,3.79,3.44,5.72.18.35.39.67.57,1-23.15,2.6-82.17,9-121.3,10.78-49.6,2.29-80.37,2.35-82.35,3.79s38.15,5.34,102.6,1.92c46.87-2.49,86.18-7.87,104.13-10.63C1487,752.18,1487.69,753.62,1488.33,755.05Z"/></g><g class="cls-13"><g class="cls-21"><polygon class="cls-11" points="1385.46 788.63 1382.6 790.55 1382.6 788.63 1385.46 788.63"/><polygon class="cls-11" points="1390.83 794.94 1387.97 796.86 1382.6 796.86 1382.6 790.55 1385.46 788.63 1390.83 788.63 1390.83 794.94"/><polygon class="cls-11" points="1387.97 796.86 1390.83 794.94 1390.83 796.86 1387.97 796.86"/></g></g><g class="cls-13"><g class="cls-22"><polygon class="cls-11" points="1396.45 854.56 1395.84 857.63 1395.84 854.56 1396.45 854.56"/><polygon class="cls-11" points="1400.36 856 1399.75 859.08 1395.84 859.08 1395.84 857.63 1396.45 854.56 1400.36 854.56 1400.36 856"/><polygon class="cls-11" points="1399.75 859.08 1400.36 856 1400.36 859.08 1399.75 859.08"/></g></g><g class="cls-13"><g class="cls-23"><polygon class="cls-11" points="1240.73 800.71 1237.87 802.63 1237.87 800.71 1240.73 800.71"/><polygon class="cls-11" points="1246.1 807.02 1243.23 808.94 1237.87 808.94 1237.87 802.63 1240.73 800.71 1246.1 800.71 1246.1 807.02"/><polygon class="cls-11" points="1243.23 808.94 1246.1 807.02 1246.1 808.94 1243.23 808.94"/></g></g><g class="cls-13"><g class="cls-24"><polygon class="cls-11" points="1299.94 865.05 1297.08 866.97 1297.08 865.05 1299.94 865.05"/><polygon class="cls-11" points="1305.31 871.36 1302.45 873.28 1297.08 873.28 1297.08 866.97 1299.94 865.05 1305.31 865.05 1305.31 871.36"/><polygon class="cls-11" points="1302.45 873.28 1305.31 871.36 1305.31 873.28 1302.45 873.28"/></g></g><g class="cls-13"><g class="cls-25"><polygon class="cls-11" points="1418.41 876.79 1415.55 878.71 1415.55 876.79 1418.41 876.79"/><polygon class="cls-11" points="1423.78 883.1 1420.91 885.02 1415.55 885.02 1415.55 878.71 1418.41 876.79 1423.78 876.79 1423.78 883.1"/><polygon class="cls-11" points="1420.91 885.02 1423.78 883.1 1423.78 885.02 1420.91 885.02"/></g></g><g class="cls-13"><g class="cls-26"><polygon class="cls-11" points="1412.55 721.38 1407.32 724.89 1407.32 721.38 1412.55 721.38"/><polygon class="cls-11" points="1422.34 732.91 1417.12 736.41 1407.32 736.41 1407.32 724.89 1412.55 721.38 1422.34 721.38 1422.34 732.91"/><polygon class="cls-11" points="1417.12 736.41 1422.34 732.91 1422.34 736.41 1417.12 736.41"/></g></g><g class="cls-13"><g class="cls-27"><polygon class="cls-11" points="1388.79 682.59 1383.56 686.09 1383.56 682.59 1388.79 682.59"/><polygon class="cls-11" points="1398.59 694.11 1393.36 697.61 1383.56 697.61 1383.56 686.09 1388.79 682.59 1398.59 682.59 1398.59 694.11"/><polygon class="cls-11" points="1393.36 697.61 1398.59 694.11 1398.59 697.61 1393.36 697.61"/></g></g><g class="cls-13"><g class="cls-28"><polygon class="cls-11" points="1250.63 859.73 1247.77 861.64 1247.77 859.73 1250.63 859.73"/><polygon class="cls-11" points="1255.99 866.04 1253.13 867.96 1247.77 867.96 1247.77 861.64 1250.63 859.73 1255.99 859.73 1255.99 866.04"/><polygon class="cls-11" points="1253.13 867.96 1255.99 866.04 1255.99 867.96 1253.13 867.96"/></g></g><g class="cls-13"><g class="cls-29"><polygon class="cls-11" points="1422.53 783.18 1419.66 785.1 1419.66 783.18 1422.53 783.18"/><polygon class="cls-11" points="1427.89 789.5 1425.03 791.42 1419.66 791.42 1419.66 785.1 1422.53 783.18 1427.89 783.18 1427.89 789.5"/><polygon class="cls-11" points="1425.03 791.42 1427.89 789.5 1427.89 791.42 1425.03 791.42"/></g></g><g class="cls-13"><g class="cls-30"><polygon class="cls-11" points="1278.84 849.65 1277.64 850.46 1277.64 849.65 1278.84 849.65"/><polygon class="cls-11" points="1281.09 852.3 1279.89 853.11 1277.64 853.11 1277.64 850.46 1278.84 849.65 1281.09 849.65 1281.09 852.3"/><polygon class="cls-11" points="1279.89 853.11 1281.09 852.3 1281.09 853.11 1279.89 853.11"/></g></g><g class="cls-13"><g class="cls-31"><polygon class="cls-11" points="1328.89 814.04 1327.69 814.85 1327.69 814.04 1328.89 814.04"/><polygon class="cls-11" points="1331.14 816.7 1329.94 817.5 1327.69 817.5 1327.69 814.85 1328.89 814.04 1331.14 814.04 1331.14 816.7"/><polygon class="cls-11" points="1329.94 817.5 1331.14 816.7 1331.14 817.5 1329.94 817.5"/></g></g><g class="cls-32"><polygon class="cls-11" points="1428.59 825.55 1428.12 825.87 1428.12 825.55 1428.59 825.55"/><polygon class="cls-11" points="1429.48 826.59 1429.01 826.91 1428.12 826.91 1428.12 825.87 1428.59 825.55 1429.48 825.55 1429.48 826.59"/><polygon class="cls-11" points="1429.01 826.91 1429.48 826.59 1429.48 826.91 1429.01 826.91"/></g><g class="cls-13"><g class="cls-33"><polygon class="cls-11" points="1363.75 885.02 1362.6 885.79 1362.6 885.02 1363.75 885.02"/><polygon class="cls-11" points="1365.91 887.56 1364.76 888.33 1362.6 888.33 1362.6 885.79 1363.75 885.02 1365.91 885.02 1365.91 887.56"/><polygon class="cls-11" points="1364.76 888.33 1365.91 887.56 1365.91 888.33 1364.76 888.33"/></g></g><g class="cls-13"><g class="cls-34"><polygon class="cls-11" points="1327.97 893.81 1326.82 894.58 1326.82 893.81 1327.97 893.81"/><polygon class="cls-11" points="1330.13 896.35 1328.98 897.12 1326.82 897.12 1326.82 894.58 1327.97 893.81 1330.13 893.81 1330.13 896.35"/><polygon class="cls-11" points="1328.98 897.12 1330.13 896.35 1330.13 897.12 1328.98 897.12"/></g></g><g class="cls-13"><g class="cls-35"><polygon class="cls-11" points="1264.24 898.4 1263.09 899.17 1263.09 898.4 1264.24 898.4"/><polygon class="cls-11" points="1266.4 900.94 1265.25 901.71 1263.09 901.71 1263.09 899.17 1264.24 898.4 1266.4 898.4 1266.4 900.94"/></g></g><g class="cls-36"><path class="cls-37" d="M1501.06,813.48c0,1.23,0,2.46,0,3.67,0,1.05-.07,2.08-.11,3.1-.07,1.26-.14,2.49-.23,3.75l-.14,1.71c-.07.84-.14,1.68-.23,2.5s-.18,1.87-.29,2.79c-.07.48-.12,1-.21,1.43s-.11,1-.18,1.49a139.9,139.9,0,0,1-10.38,36.48q-1.87,4.35-4.06,8.53c-.86,1.67-1.75,3.29-2.66,4.91-.71,1.23-1.42,2.44-2.15,3.62a142.57,142.57,0,0,1-9.92,14.21q-2.73,3.39-5.61,6.64a141.07,141.07,0,0,1-32.36,26.7h0a141.09,141.09,0,0,1-23,11.16c-1.5.57-3,1.11-4.51,1.62-1.3.43-2.6.86-3.9,1.25-1,.34-2.12.64-3.17.93a142.08,142.08,0,0,1-82.81-1.87q-4.51-1.47-8.89-3.28a134.65,134.65,0,0,1-13.69-6.45c-1.3-.69-2.57-1.4-3.83-2.15a11,11,0,0,1-1-.61l-.52-.32h0c-.47-.28-.93-.55-1.41-.87-1.78-1-3.53-2.19-5.27-3.35l-.2-.14c-.82-.57-1.64-1.14-2.44-1.75h0a144.78,144.78,0,0,1-15.14-12.43,146.41,146.41,0,0,1-12.93-13.89c-.39-.48-.8-1-1.17-1.48-2.16-2.74-4.21-5.55-6.18-8.44-.11-.16-.22-.35-.34-.5q-3.15-4.7-5.93-9.65c-.54-1-1.12-2-1.62-3-.25-.44-.48-.87-.7-1.32a356.42,356.42,0,0,0,162.4-25.91c51.95-21.55,83-48.33,101.25-70.79.23,1,.46,2,.67,3l.27,1.36c.09.39.16.8.23,1.19q1,5.37,1.64,10.88c.16,1.34.27,2.69.39,4,.09,1,.16,2.12.23,3.19s.11,2.05.15,3.08v.45c0,1,.07,2,.07,3C1501.06,812.43,1501.06,813,1501.06,813.48Z"/></g></g><path class="cls-38" d="M953.79,758.67c1.3-43.93,271.66-4.89,229.72-18-115.78-36.22-98.66-146.46-19.41-222.49,47.86-45.93,182.24-122.84,225.75-160.42,10.33-8.92,20.69-19.63,22.28-33.18,2-17.07-11.25-33-27-39.75-27.29-11.72-64.09-7.29-92.73-3.94-43.93,5.15-86.77,17.05-129.07,29.61-63.73,18.92-125.41,44.58-184.38,75.22l-1.61.84A1017,1017,0,0,0,773,527a364,364,0,0,0-62.61,72.48h0c126.17-124.39,306.08-223,503.46-276,15.24-4.09,30.94-8,46.55-8.08s31.32,4.22,38.32,13.55c8,10.59,5.06,26.87-7.81,36.28-12.43,9.09-26.08,19.48-41,27.81a1670.94,1670.94,0,0,0-209,138c-29.05,22.57-57.18,46.16-77.83,72.67s-33.5,56.37-29.73,84.56Z"/><path class="cls-39" d="M68.25,764.63c0-1.31,135.77-92,272.93-148.55-57.66,33.2-134.73,83.17-222.06,190.42.07-.08-14.89-13.18-16.26-14.39C98,787.83,68.31,767.49,68.25,764.63Z"/><polygon class="cls-11" points="1222.25 78.1 1229.93 76.67 1222.25 75.25 1224.21 72.39 1221.36 74.35 1219.93 66.67 1218.5 74.35 1215.64 72.39 1217.6 75.25 1209.93 76.67 1217.6 78.1 1215.64 80.96 1218.5 79 1219.93 86.67 1221.36 79 1224.21 80.96 1222.25 78.1"/><polygon class="cls-11" points="1351.5 353.86 1359.17 352.43 1351.5 351 1353.46 348.14 1350.6 350.1 1349.17 342.43 1347.75 350.1 1344.89 348.14 1346.85 351 1339.17 352.43 1346.85 353.86 1344.89 356.71 1347.75 354.75 1349.17 362.43 1350.6 354.75 1353.46 356.71 1351.5 353.86"/><polygon class="cls-11" points="1272.25 683.1 1279.93 681.67 1272.25 680.25 1274.21 677.39 1271.36 679.35 1269.93 671.67 1268.5 679.35 1265.64 677.39 1267.6 680.25 1259.93 681.67 1267.6 683.1 1265.64 685.96 1268.5 684 1269.93 691.67 1271.36 684 1274.21 685.96 1272.25 683.1"/><polygon class="cls-11" points="79.75 122.1 87.43 120.67 79.75 119.25 81.71 116.39 78.86 118.35 77.43 110.67 76 118.35 73.14 116.39 75.1 119.25 67.43 120.67 75.1 122.1 73.14 124.96 76 123 77.43 130.68 78.86 123 81.71 124.96 79.75 122.1"/><polygon class="cls-11" points="626 141.36 633.67 139.93 626 138.5 627.96 135.64 625.1 137.6 623.67 129.93 622.25 137.6 619.39 135.64 621.35 138.5 613.67 139.93 621.35 141.36 619.39 144.21 622.25 142.25 623.67 149.93 625.1 142.25 627.96 144.21 626 141.36"/><polygon class="cls-11" points="540.25 333.1 547.93 331.68 540.25 330.25 542.21 327.39 539.36 329.35 537.93 321.68 536.5 329.35 533.64 327.39 535.6 330.25 527.93 331.68 535.6 333.1 533.64 335.96 536.5 334 537.93 341.68 539.36 334 542.21 335.96 540.25 333.1"/><polygon class="cls-11" points="203.75 365.1 211.43 363.68 203.75 362.25 205.71 359.39 202.86 361.35 201.43 353.68 200 361.35 197.14 359.39 199.1 362.25 191.43 363.68 199.1 365.1 197.14 367.96 200 366 201.43 373.68 202.86 366 205.71 367.96 203.75 365.1"/><polygon class="cls-11" points="50 605.5 57.67 604.07 50 602.64 51.96 599.79 49.1 601.75 47.67 594.07 46.25 601.75 43.39 599.79 45.35 602.64 37.67 604.07 45.35 605.5 43.39 608.36 46.25 606.4 47.67 614.07 49.1 606.4 51.96 608.36 50 605.5"/><polygon class="cls-11" points="279.25 754.6 286.93 753.17 279.25 751.75 281.21 748.89 278.36 750.85 276.93 743.17 275.5 750.85 272.64 748.89 274.6 751.75 266.93 753.17 274.6 754.6 272.64 757.46 275.5 755.5 276.93 763.17 278.36 755.5 281.21 757.46 279.25 754.6"/><circle class="cls-40" cx="1269.68" cy="338.55" r="5"/><circle class="cls-40" cx="1055.35" cy="667.55" r="5"/><circle class="cls-40" cx="829.12" cy="228.6" r="5"/><circle class="cls-40" cx="91.9" cy="768.17" r="5"/><circle class="cls-40" cx="229.6" cy="186.34" r="5"/><g id="cometas" class="cls-41"><path class="cls-42" d="M30.23,85.85A5,5,0,0,0,35,94.71L132.73,41,128,32.18Z"/><path class="cls-43" d="M31,87.83a3.17,3.17,0,0,0,3,5.58l64.8-35.85L95.8,52Z"/><path class="cls-44" d="M39.55,86.91s-4.75,5-5.8,5.55a2.15,2.15,0,0,1-2-3.79C32.77,88.11,39.55,86.91,39.55,86.91Z"/></g><g id="cometas-2" data-name="cometas" class="cls-41"><path class="cls-45" d="M238.7,583.41A7.74,7.74,0,1,0,246,597.06l150.69-82.73-7.31-13.65Z"/><path class="cls-46" d="M239.9,586.46a4.88,4.88,0,0,0,4.6,8.6l99.89-55.27-4.6-8.6Z"/><path class="cls-47" d="M253.07,585s-7.32,7.69-8.94,8.55a3.31,3.31,0,0,1-3.13-5.84C242.62,586.89,253.07,585,253.07,585Z"/></g><g id="cometas-3" data-name="cometas" class="cls-41"><path class="cls-48" d="M1145.42,636.9a10.6,10.6,0,0,0,10,18.69l206.26-113.23-10-18.69Z"/><path class="cls-49" d="M1147.06,641.09a6.67,6.67,0,1,0,6.3,11.76l136.72-75.64-6.3-11.77Z"/><path class="cls-50" d="M1165.1,639.14s-10,10.52-12.24,11.7a4.53,4.53,0,1,1-4.28-8C1150.78,641.67,1165.1,639.14,1165.1,639.14Z"/></g><g id="cometas-4" data-name="cometas" class="cls-41"><path class="cls-51" d="M1325.23,63.85a5,5,0,1,0,4.74,8.86L1427.73,19,1423,10.18Z"/><path class="cls-52" d="M1326,65.83a3.17,3.17,0,0,0,3,5.58l64.8-35.85-3-5.58Z"/><path class="cls-53" d="M1334.55,64.91s-4.75,5-5.8,5.55a2.15,2.15,0,0,1-2-3.79C1327.77,66.11,1334.55,64.91,1334.55,64.91Z"/></g><g id="cometas-5" data-name="cometas" class="cls-41"><path class="cls-54" d="M946.43,172.69a6.64,6.64,0,0,0,6.27,11.71l129.25-71-6.27-11.71Z"/><path class="cls-55" d="M947.45,175.31a4.18,4.18,0,1,0,3.95,7.37l85.68-47.4-3.95-7.37Z"/><path class="cls-56" d="M958.76,174.09s-6.29,6.59-7.67,7.33a2.84,2.84,0,0,1-2.69-5C949.79,175.67,958.76,174.09,958.76,174.09Z"/></g><g id="cometas-6" data-name="cometas" class="cls-41"><path class="cls-57" d="M1030.33,185a2.3,2.3,0,1,0,2.17,4l44.72-24.55-2.17-4.05Z"/><path class="cls-58" d="M1030.68,185.87a1.45,1.45,0,0,0,1.37,2.55L1061.7,172l-1.37-2.56Z"/><path class="cls-59" d="M1034.59,185.45a29.4,29.4,0,0,1-2.65,2.53,1,1,0,1,1-.93-1.73A29.77,29.77,0,0,1,1034.59,185.45Z"/></g><path class="cls-60" d="M-26.64,327.38A769.94,769.94,0,0,1,250.6,153.87c5.19-1.87,10.65-3.7,16.12-2.94s10.87,5,11,10.5c.13,4.85-3.57,8.85-7,12.25l-31.53,31.09C231.44,212.4,223.08,223.3,228,233c3.26,6.36,11.38,8.92,18.45,7.88s13.35-4.89,19.46-8.59c0,0,234.08-117.79,319.86-133.95-88,13.73-170,41.12-250.07,80.15-6.42,3.13-16.75,7-23.88,7.37s-15-2.89-17.65-9.52c-4.05-10.07,5.27-20.17,13.66-27.06l34.23-28.09c3.75-3.08,7.81-6.72,8.12-11.56.35-5.51-4.65-10.21-10-11.46s-11,.07-16.33,1.46c-106.35,27.53-250.78,99-342.44,187.16Z"/><g class="cls-9"><circle class="cls-61" cx="345.74" cy="374" r="46.63" transform="translate(-54 689.63) rotate(-85.54)"/><g class="cls-62"><path class="cls-63" d="M352.67,352.6c.08,1.3,1.74,1.31,2,0C354.61,351.33,353,351.32,352.67,352.6Z"/></g><g class="cls-64"><path class="cls-65" d="M352.94,353.29a1,1,0,0,0,1.48-1.35,1,1,0,0,0-1.48,1.35Z"/></g><path class="cls-66" d="M371.24,350.38l.61.68c.17.2.34.39.5.59l.59.72.26.33.38.5c.14.19.28.37.41.56l.21.3.21.3a31.69,31.69,0,0,1,1.67,2.7,33.51,33.51,0,0,1,2.53,5.61h0a1,1,0,0,1,0,.1c.25.74.49,1.49.69,2.24q.18.68.33,1.35c.08.34.16.68.22,1a36.2,36.2,0,0,1,.58,4.27c0,.61.06,1.23.08,1.85v.3a33.31,33.31,0,0,1-.25,4.58c0,.29-.07.58-.11.86a34.42,34.42,0,0,1-1.07,4.89h0a34.91,34.91,0,0,1-2.32,5.9c-.18.35-.37.71-.56,1s-.33.6-.5.89-.28.47-.42.7a34.88,34.88,0,0,1-6.13,7.41,35.5,35.5,0,0,1-5.51,4.15,34.94,34.94,0,0,1-3.82,2c-.72.32-1.44.62-2.18.89-.53.2-1.06.38-1.6.55s-1.32.4-2,.57c-.35.09-.71.18-1.06.25a1.59,1.59,0,0,1-.3.06l-.15,0h0l-.4.08-1.53.27h-.06c-.25,0-.49.07-.74.09h0a36,36,0,0,1-4.86.27,37.05,37.05,0,0,1-4.7-.37l-.46-.08c-.86-.13-1.71-.3-2.55-.5l-.15,0c-.91-.22-1.81-.48-2.7-.77-.27-.09-.55-.18-.81-.28l-.35-.12-.09,0-.31-.11-.23-.09c-.45-.17-.91-.37-1.35-.56s-1.12-.51-1.68-.78a34.71,34.71,0,0,1-6.64-4.36l-.94-.82c-.36-.31-.71-.64-1-1-.11-.1-.21-.21-.31-.32a4.89,4.89,0,0,1-.4-.39c-.25-.25-.49-.51-.73-.77l-.41-.45-.2-.23c-.39-.45-.77-.91-1.14-1.37-.16-.19-.31-.39-.45-.59s-.41-.55-.61-.83h0c-.2-.28-.39-.55-.57-.83l-.23-.34c-.2-.31-.39-.62-.58-.93h0c-.12-.18-.23-.37-.33-.55-.28-.49-.55-1-.82-1.48h0l-.13-.26-.21-.41c-.19-.39-.37-.78-.54-1.18-.33-.72-.63-1.47-.9-2.22a.69.69,0,0,1-.05-.13h0c-.26-.71-.49-1.43-.69-2.15a.14.14,0,0,1,0-.07c-.08-.25-.15-.5-.22-.76v0c0-.13-.07-.27-.1-.41a35.3,35.3,0,0,1-1-7,33.34,33.34,0,0,1,.15-5.09c0-.49.11-1,.17-1.48.16-1.1.37-2.19.64-3.28a34.1,34.1,0,0,1,2-5.92l0-.07,0-.11a34.85,34.85,0,0,1,8.29-11.48l.3-.28a35.09,35.09,0,0,1,13.17-7.45l1.11-.33h0c.62-.16,1.24-.32,1.87-.44h.06a31.76,31.76,0,0,1,3.36-.54h0l.52,0h0l.29,0,1.08-.08.58,0h.41c.92,0,1.83,0,2.74,0h0l.35,0h0l.35,0,1.08.08.85.11c.5,0,1,.14,1.51.22l.52.09.23,0,.32.07c.29.05.57.11.86.18l.3.07.47.11h0l.42.11.13,0c.54.14,1.07.3,1.59.47l.28.09.57.19.51.19.47.17.16.07.92.37.13.05.48.21.72.33q1.47.7,2.88,1.53l.85.52.88.58.21.14.62.44.28.2.24.18.25.19c.65.48,1.27,1,1.88,1.53.26.22.5.44.75.67l.58.55.55.53.07.09c.17.17.35.35.51.53Z"/><path class="cls-67" d="M371,350.1c-.16-.18-.34-.36-.51-.53l-.07-.09-.55-.53-.58-.55c-.25-.23-.49-.45-.75-.67-.61-.54-1.23-1.05-1.88-1.53a91.29,91.29,0,0,0-12.32,12.53c-7.2,9.18-7.09,18.09-16.17,27.75s-16.94,6.55-16.29,2.08,11.37-17.35,23.76-29c8.45-7.94,14.61-13.13,17.69-15.63q-1.41-.82-2.88-1.53l-.72-.33-.48-.21-.13-.05-1.08-.44-.47-.17L357,341a168.92,168.92,0,0,1-23.37,26.61c-9.91,9.17-17,15.21-21.25,18.67.27.75.57,1.5.9,2.22.17.4.35.79.54,1.18l.21.41.13.26h0c.27.49.54,1,.82,1.48.1.18.21.37.33.55h0c.19.31.38.62.58.93l.23.34c.18.28.37.55.57.83h0c.2.28.4.56.61.83s.29.4.45.59c.37.46.75.92,1.14,1.37l.2.23.41.45c.24.26.48.52.73.77a4.89,4.89,0,0,0,.4.39c.1.11.2.22.31.32.34.33.69.66,1,1l.94.82a34.71,34.71,0,0,0,6.64,4.36c5.79-6.93,20.84-24.89,28.3-32.94,5.53-6,13.14-11.93,18.18-15.62a31.69,31.69,0,0,0-1.67-2.7l-.21-.3-.21-.3c-.13-.19-.27-.37-.41-.56l-.38-.5-.26-.33-.59-.72c-.16-.2-.33-.39-.5-.59l-.61-.68Zm-54.15,34.53a1.69,1.69,0,1,1-.09,2.38A1.69,1.69,0,0,1,316.82,384.63Zm13,14.94a2.22,2.22,0,1,1,.13-3.14A2.21,2.21,0,0,1,329.84,399.57Zm25.67-32.35a1.69,1.69,0,0,1-2.29-2.49,1.69,1.69,0,0,1,2.29,2.49Zm5.4.65a.85.85,0,1,1,.06-1.2A.85.85,0,0,1,360.91,367.87Z"/><path class="cls-68" d="M358,386.9A232.67,232.67,0,0,1,332.63,407l.23.09.31.11.09,0,.35.12c.26.1.54.19.81.28.89.29,1.79.55,2.7.77l.15,0c.84.2,1.69.37,2.55.5l.46.08a37.05,37.05,0,0,0,4.7.37,36,36,0,0,0,4.86-.27h0c.25,0,.49-.06.74-.09h.06l1.53-.27.4-.08h0l.15,0a1.59,1.59,0,0,0,.3-.06c.35-.07.71-.16,1.06-.25.67-.17,1.33-.36,2-.57,5.22-5.45,10-10.14,11.63-11.1,1.92-1.09-.6,2.86-4,7.64a35.5,35.5,0,0,0,5.51-4.15,34.88,34.88,0,0,0,6.13-7.41c.14-.23.29-.46.42-.7s.34-.59.5-.89.38-.7.56-1a34.91,34.91,0,0,0,2.32-5.9h0a34.42,34.42,0,0,0,1.07-4.89c0-.28.08-.57.11-.86-1.23,1.4-3,3.38-5.56,6.19-7.72,8.49-22.5,20.32-23.09,19s6.18-10.58,16.82-19.79c5-4.31,9.1-7.78,12.08-10.25,0-.62-.05-1.24-.08-1.85a36.2,36.2,0,0,0-.58-4.27c-.06-.34-.14-.68-.22-1s-.21-.9-.33-1.35c-.2-.75-.44-1.5-.69-2.24a1,1,0,0,0,0-.1A126.82,126.82,0,0,1,358,386.9Zm-11.21,16.62c-2.42,2.23-4.9,3.47-5.54,2.78s.82-3.05,3.24-5.27,4.9-3.47,5.53-2.78S349.22,401.3,346.81,403.52Z"/><path class="cls-69" d="M347.54,339.13a83.59,83.59,0,0,1-16.28,19.68c-8.07,7.19-16,13.27-21,16.95a33.34,33.34,0,0,1,.15-5.09A109.54,109.54,0,0,0,326,360.29c9.35-8,16.37-18.89,13.8-18.48s-8,8.16-17,15.59a133.52,133.52,0,0,1-11.57,8.51,34.1,34.1,0,0,1,2-5.92l0-.07,0-.11a106.71,106.71,0,0,0,14.06-11.68c3.27-3.16,5.78-5.62,7.7-7.53l1.11-.33h0c.62-.16,1.24-.32,1.87-.44h.06a31.76,31.76,0,0,1,3.36-.54h0l.52,0h0l.29,0,1.08-.08.58,0h.41c.92,0,1.83,0,2.74,0h0l.35,0Z"/><g class="cls-70"><ellipse class="cls-71" cx="324.57" cy="366.35" rx="21.39" ry="11.9" transform="translate(-131.24 544.66) rotate(-69.83)"/></g><path class="cls-72" d="M322.27,352.85c1.32.48.89,5-1,10s-4.42,8.72-5.74,8.24-.9-5,.95-10S320.94,352.36,322.27,352.85Z"/><path class="cls-72" d="M315.68,373.18a1.79,1.79,0,1,1-2.29,1.06A1.79,1.79,0,0,1,315.68,373.18Z"/><path class="cls-73" d="M371.24,350.38l.61.68c.17.2.34.39.5.59l.59.72.26.33.38.5c.14.19.28.37.41.56l.21.3.21.3a31.69,31.69,0,0,1,1.67,2.7,33.51,33.51,0,0,1,2.53,5.61h0a1,1,0,0,1,0,.1c.25.74.49,1.49.69,2.24q.18.68.33,1.35c.08.34.16.68.22,1a36.2,36.2,0,0,1,.58,4.27c0,.61.06,1.23.08,1.85v.3a33.31,33.31,0,0,1-.25,4.58c0,.29-.07.58-.11.86a34.42,34.42,0,0,1-1.07,4.89h0a34.91,34.91,0,0,1-2.32,5.9c-.18.35-.37.71-.56,1s-.33.6-.5.89-.28.47-.42.7a34.88,34.88,0,0,1-6.13,7.41,35.5,35.5,0,0,1-5.51,4.15,34.94,34.94,0,0,1-3.82,2c-.72.32-1.44.62-2.18.89-.53.2-1.06.38-1.6.55s-1.32.4-2,.57c-.35.09-.71.18-1.06.25a1.59,1.59,0,0,1-.3.06l-.15,0h0l-.4.08-1.53.27h-.06c-.25,0-.49.07-.74.09h0a36,36,0,0,1-4.86.27,37.05,37.05,0,0,1-4.7-.37l-.46-.08c-.86-.13-1.71-.3-2.55-.5l-.15,0c-.91-.22-1.81-.48-2.7-.77-.27-.09-.55-.18-.81-.28l-.35-.12-.09,0-.31-.11-.23-.09c-.45-.17-.91-.37-1.35-.56,6.44-5.7,16.92-16.71,23-32.44,5.57-14.42,5.24-25.57,3.9-32.5l.92.37.13.05.48.21.72.33q1.47.7,2.88,1.53l.85.52.88.58.21.14.62.44.28.2.24.18.25.19c.65.48,1.27,1,1.88,1.53.26.22.5.44.75.67l.58.55.55.53.07.09c.17.17.35.35.51.53Z"/><g class="cls-74"><path class="cls-75" d="M371.2,350.34l.61.68c.18.19.34.39.5.59s.4.47.59.72.18.22.26.34l.38.49.37.51.25.36.21.3a34.58,34.58,0,0,1,4.23,8.44h0c.25.71.47,1.43.67,2.16q.18.68.33,1.35c.09.36.16.74.24,1.11a36.43,36.43,0,0,1,.56,4.27c.05.72.07,1.44.08,2.16a34.16,34.16,0,0,1-.38,5.44A34.79,34.79,0,0,1,376.71,390c-.18.35-.36.71-.55,1.05s-.4.72-.61,1.07c-.1.18-.21.35-.31.52a35.45,35.45,0,0,1-15.47,13.58c-.71.32-1.44.62-2.17.89a35.46,35.46,0,0,1-3.59,1.12c-.36.09-.71.18-1.06.25a.65.65,0,0,1-.19,0l-.11,0c-.19,0-.36.09-.56.12-.43.09-.88.17-1.33.24l.81-.19c.6-.15,1.2-.32,1.8-.5s1.2-.39,1.78-.62c.74-.27,1.47-.57,2.18-.89a35.17,35.17,0,0,0,9.33-6.17,34.72,34.72,0,0,0,3.88-4.19,32.06,32.06,0,0,0,2.25-3.22q.49-.78.93-1.59c.19-.34.37-.69.55-1.05.34-.69.67-1.38,1-2.08h0a34.86,34.86,0,0,0,2.13-7h0a34.87,34.87,0,0,0,.59-4.78h0c0-.77,0-1.54,0-2.31a34.25,34.25,0,0,0-.24-3.78,33.62,33.62,0,0,0-.64-3.72c-.11-.45-.22-.9-.34-1.35,0,0,0,0,0-.06a35,35,0,0,0-3.75-8.79l-.31-.51c-.36-.58-.74-1.14-1.14-1.7l-.13-.2c-.24-.33-.48-.66-.73-1-.43-.57-.89-1.12-1.37-1.67l-.4-.44c-.06-.08-.14-.16-.21-.24s-.17-.19-.27-.28-.41-.45-.63-.67h0c-.17-.18-.35-.35-.53-.52-.43-.43-.87-.83-1.32-1.22-.25-.22-.5-.44-.76-.64-.45-.38-.91-.73-1.38-1.08l-.23-.17-.28-.21a34.58,34.58,0,0,0-4.86-2.92l-.58-.28c-.39-.19-.78-.36-1.17-.53s-.94-.39-1.42-.57-1.07-.39-1.61-.56-.82-.26-1.23-.37-.63-.18-1-.26h0l-.47-.12-.51-.11-.65-.14-.32-.07-.23,0c-.67-.12-1.35-.23-2-.31l-.23,0H347c-.66-.08-1.33-.14-2-.18h-.37c-.91,0-1.82-.05-2.73,0h-.41l-.59,0c-.36,0-.72,0-1.07.07l-.3,0h0l-.52.05h0l-.86.11h-.06q-.4,0-.81.12a33.05,33.05,0,0,1,4.17-.72h0l.52-.05h0l.3,0,1.08-.08.58,0h.41c.91,0,1.82,0,2.73,0h0l.35,0,.47,0c.5,0,1,.08,1.53.14l.08,0c.61.07,1.22.16,1.82.27a3.35,3.35,0,0,1,.44.07l.23,0,.32.07c.31.06.63.12.94.2l.22.05.47.11h0l.62.17c.54.14,1.07.3,1.6.47s.89.3,1.34.47,1.12.43,1.68.67l1.14.51A35.87,35.87,0,0,1,365,345l.78.55.28.2.29.23c.71.52,1.41,1.08,2.08,1.67.27.23.53.47.8.72s.35.32.53.5l.54.53.05.05.08.08.51.54A3.45,3.45,0,0,1,371.2,350.34Z"/></g><path class="cls-11" d="M370.06,349.3a34.73,34.73,0,0,1,2.66,2.63c13.72-4.83,23.76-6,25.85-2.19,3.5,6.35-16.45,24-44.55,39.53s-53.71,22.9-57.21,16.55c-2.07-3.76,4.14-11.53,15.36-20.44a31.15,31.15,0,0,1-.86-3.65c-18.09,13.07-28.71,25-25.77,30.3,4.27,7.75,35.56-1.3,69.89-20.21s58.68-40.54,54.41-48.29C406.88,338.16,391,340.86,370.06,349.3Z"/></g><g id="cohete" class="cls-76"><path class="cls-77" d="M274.25,369.47a81,81,0,0,1,4.64-23.89,90.1,90.1,0,0,1,11.32-21.81A95.94,95.94,0,0,1,328,292.08l2.84,6.69a90.36,90.36,0,0,0-37.53,27.37A87.3,87.3,0,0,0,281,346.4a79.89,79.89,0,0,0-6.16,23.11Z"/><path class="cls-66" d="M330.69,301.43a9.27,9.27,0,0,1-3.81,4.29,8.23,8.23,0,0,0,10-4.27,23.48,23.48,0,0,0,15.29-7.67.63.63,0,0,0-.1-.94,24,24,0,0,0-16.47-4.42c-2.79-3.12-7.07-4.18-10.64-2.1a9.23,9.23,0,0,1,4.62,3.4m0,0a13.54,13.54,0,0,0-2.08.88.62.62,0,0,0-.4.7l1,9.37c0,.19.23.36.52.42a8.43,8.43,0,0,0,2.12.34Zm9.62,2.3a2.63,2.63,0,1,1-2.34,2.9A2.58,2.58,0,0,1,339.17,292Z"/><path class="cls-78" d="M331.71,290.67s10.73-3.07,18.06,2.5c0,0-4.88,7.39-17.16,6.1Z"/><path class="cls-79" d="M321.77,291.53a1.56,1.56,0,1,1-1.56-1.56A1.56,1.56,0,0,1,321.77,291.53Z"/><path class="cls-80" d="M315.23,295.14a.78.78,0,1,1-.78-.78A.78.78,0,0,1,315.23,295.14Z"/><path class="cls-80" d="M319.23,307.23a.78.78,0,1,1-.78-.78A.78.78,0,0,1,319.23,307.23Z"/><circle class="cls-79" cx="323.43" cy="306.26" r="1.56"/></g></g></g></svg>