<svg version="1.2" overflow="visible" preserveAspectRatio="none" viewBox="0 0 263 284.75" xmlns:xlink="http://www.w3.org/1999/xlink" xmlns="http://www.w3.org/2000/svg" width="40" height="43"><g transform="translate(1, 1)"><defs><style>.cls-1_1543722288538{fill:none;}.cls-2_1543722288538{clip-path:url(#clip-path_1543722288538);}.cls-3_1543722288538{fill:#415988;}</style><clipPath transform="translate(-150 -50)" id="clip-path_1543722288538" vector-effect="non-scaling-stroke" style="fill: rgb(33, 41, 138);"><path d="M265.12,256.62a16.31,16.31,0,0,0,30.76,0Zm-11.26,0H209.81a5.43,5.43,0,0,1-5.43-5.43V224a5.45,5.45,0,0,1,2.19-4.37l19.56-14.5.1-33.3A54.28,54.28,0,0,1,275.06,118V104.38h10.88V118a54.38,54.38,0,0,1,48.92,54.1V205l19.59,14.68a5.44,5.44,0,0,1,2.17,4.35v27.19a5.43,5.43,0,0,1-5.43,5.43H307.14a27.19,27.19,0,0,1-53.28,0ZM326.16,212a5.45,5.45,0,0,1-2.18-4.35V172.12a43.44,43.44,0,0,0-86.87-.25l-.11,36a5.44,5.44,0,0,1-2.2,4.35l-19.55,14.5v19h130.5v-19Z" class="cls-1_1543722288538" vector-effect="non-scaling-stroke" style="fill: rgb(33, 41, 138);"/></clipPath></defs><g data-name="Layer 2" id="Layer_2_1543722288538"><g data-name="DESIGNED BY FREEPIK" id="DESIGNED_BY_FREEPIK_1543722288538"><g class="cls-2_1543722288538"><rect height="282.75" width="261" class="cls-3_1543722288538" vector-effect="non-scaling-stroke" style="fill: rgb(33, 41, 138);"/></g></g></g></g></svg>