<svg version="1.2" overflow="visible" preserveAspectRatio="none" viewBox="0 0 82.05000305175781 62.810001373291016" xmlns="http://www.w3.org/2000/svg" width="40" height="30"><g transform="translate(1, 1)"><defs><style>.cls-1_1543722737017{fill:#21298a;}.cls-2_1543722737017{fill:#fff;}</style></defs><g data-name="Layer 2" id="Layer_2_1543722737017"><g data-name="DESIGNED BY FREEPIK" id="DESIGNED_BY_FREEPIK_1543722737017"><path d="M49.5,60.81H30.72A22.78,22.78,0,0,1,8,38.06V22.75A22.78,22.78,0,0,1,30.72,0H49.5A22.78,22.78,0,0,1,72.25,22.75V38.06A22.78,22.78,0,0,1,49.5,60.81ZM30.72,3.5A19.28,19.28,0,0,0,11.47,22.75V38.06A19.28,19.28,0,0,0,30.72,57.31H49.5A19.28,19.28,0,0,0,68.75,38.06V22.75A19.28,19.28,0,0,0,49.5,3.5Z" class="cls-1_1543722737017" vector-effect="non-scaling-stroke"/><rect ry="2.58" rx="2.58" height="17.54" width="5.38" y="21.35" x="74.66" class="cls-1_1543722737017" vector-effect="non-scaling-stroke"/><rect ry="2.58" rx="2.58" height="17.54" width="5.38" y="21.35" class="cls-1_1543722737017" vector-effect="non-scaling-stroke"/><rect ry="5.63" rx="5.63" height="15.67" width="46.19" y="23.08" x="16.93" class="cls-1_1543722737017" vector-effect="non-scaling-stroke"/><path d="M36.62,31.51a3.82,3.82,0,1,1-3.82-3.82A3.82,3.82,0,0,1,36.62,31.51Z" class="cls-2_1543722737017" vector-effect="non-scaling-stroke"/><path d="M52.79,31.3A3.82,3.82,0,1,1,49,27.48,3.82,3.82,0,0,1,52.79,31.3Z" class="cls-2_1543722737017" vector-effect="non-scaling-stroke"/></g></g></g></svg>