<svg version="1.2" overflow="visible" preserveAspectRatio="none" viewBox="0 0 110.20999908447266 192.75" xmlns:xlink="http://www.w3.org/1999/xlink" xmlns="http://www.w3.org/2000/svg" width="190" height="334"><g transform="translate(1, 1)"><defs><style>.cls-1_1545030493451{fill:#fff;}.cls-2_1545030493451{fill:url(#linear-gradient_1545030493451);}</style><linearGradient gradientUnits="userSpaceOnUse" y2="190.75" x2="56.44" y1="116.44" x1="56.44" id="linear-gradient_1545030493451" vector-effect="non-scaling-stroke"><stop stop-color="#fff" offset="0" vector-effect="non-scaling-stroke"/><stop stop-opacity="0.81" stop-color="#fff" offset="0.07" vector-effect="non-scaling-stroke"/><stop stop-opacity="0.62" stop-color="#fff" offset="0.15" vector-effect="non-scaling-stroke"/><stop stop-opacity="0.45" stop-color="#fff" offset="0.23" vector-effect="non-scaling-stroke"/><stop stop-opacity="0.31" stop-color="#fff" offset="0.32" vector-effect="non-scaling-stroke"/><stop stop-opacity="0.2" stop-color="#fff" offset="0.41" vector-effect="non-scaling-stroke"/><stop stop-opacity="0.11" stop-color="#fff" offset="0.51" vector-effect="non-scaling-stroke"/><stop stop-opacity="0.05" stop-color="#fff" offset="0.61" vector-effect="non-scaling-stroke"/><stop stop-opacity="0.01" stop-color="#fff" offset="0.73" vector-effect="non-scaling-stroke"/><stop stop-opacity="0" stop-color="#fff" offset="0.89" vector-effect="non-scaling-stroke"/></linearGradient></defs><g data-name="Layer 2" id="Layer_2_1545030493451"><g data-name="DESIGNED BY FREEPIK" id="DESIGNED_BY_FREEPIK_1545030493451"><path d="M83.79,100a40.77,40.77,0,0,1-59.31.08" class="cls-1_1545030493451" vector-effect="non-scaling-stroke"/><path d="M36.45,116.44s18.24,4.46,34,0l30.16,74.31H12.26Z" class="cls-2_1545030493451" vector-effect="non-scaling-stroke"/><path d="M54.14,76.48c-1.6,0-2.15,1.29-2.15,3.36V82.1c0,2.06.55,3.35,2.15,3.35s2.15-1.29,2.15-3.35V79.84C56.29,77.77,55.74,76.48,54.14,76.48Z" class="cls-1_1545030493451" vector-effect="non-scaling-stroke"/><polygon points="36.91 82.98 40.65 82.98 40.65 77 40.5 77 36.91 82.98" class="cls-1_1545030493451" vector-effect="non-scaling-stroke"/><polygon points="65.62 82.98 69.36 82.98 69.36 77 69.21 77 65.62 82.98" class="cls-1_1545030493451" vector-effect="non-scaling-stroke"/><path d="M103.21,65.75H94.59a3.36,3.36,0,0,0,.3-1.34v-4a3.6,3.6,0,1,0-7.19,0v4a3.36,3.36,0,0,0,.3,1.34H18.1a3.54,3.54,0,0,0,.29-1.34v-4a3.59,3.59,0,1,0-7.18,0v4a3.54,3.54,0,0,0,.29,1.34H5a5,5,0,0,0-5,5v20.5a5,5,0,0,0,5,5h98.21a5,5,0,0,0,5-5V70.75A5,5,0,0,0,103.21,65.75ZM44.52,84.81H42.89v2.42H40.65V84.81H35v-2l5-8.1h2.93V83h1.63Zm9.62,2.63c-3.19,0-4.67-2.38-4.67-6.47s1.48-6.48,4.67-6.48,4.67,2.39,4.67,6.48S57.33,87.44,54.14,87.44Zm19.09-2.63H71.6v2.42H69.36V84.81H63.68v-2l5-8.1H71.6V83h1.63Z" class="cls-1_1545030493451" vector-effect="non-scaling-stroke"/><path d="M62.51,0H43.73A22.78,22.78,0,0,0,21,22.75V38.06A22.78,22.78,0,0,0,43.73,60.81H62.51A22.78,22.78,0,0,0,85.26,38.06V22.75A22.78,22.78,0,0,0,62.51,0ZM81.76,38.06A19.28,19.28,0,0,1,62.51,57.31H43.73A19.28,19.28,0,0,1,24.48,38.06V22.75A19.28,19.28,0,0,1,43.73,3.5H62.51A19.28,19.28,0,0,1,81.76,22.75Z" class="cls-1_1545030493451" vector-effect="non-scaling-stroke"/><rect ry="2.58" rx="2.58" height="17.54" width="5.38" y="21.35" x="87.68" class="cls-1_1545030493451" vector-effect="non-scaling-stroke"/><rect ry="2.58" rx="2.58" height="17.54" width="5.38" y="21.35" x="13.01" class="cls-1_1545030493451" vector-effect="non-scaling-stroke"/><path d="M70.51,23.08H35.56a5.63,5.63,0,0,0-5.62,5.63v4.41a5.63,5.63,0,0,0,5.62,5.63h35a5.63,5.63,0,0,0,5.62-5.63V28.71A5.63,5.63,0,0,0,70.51,23.08Zm-27,11.42a3.32,3.32,0,0,1-2.6-5.4l5.38.25.12.17a3.41,3.41,0,0,1,.43,1.65A3.33,3.33,0,0,1,43.52,34.5Zm18,1.67a5,5,0,0,1-3-9l6.51.44a5,5,0,0,1-3.52,8.55Z" class="cls-1_1545030493451" vector-effect="non-scaling-stroke"/></g></g></g></svg>