<svg version="1.2" overflow="visible" preserveAspectRatio="none" viewBox="0 0 82.05000305175781 59.310001373291016" xmlns="http://www.w3.org/2000/svg" width="21.564912280702" height="15.365"><g transform="translate(1, 1)"><defs><style>.cls-1_1543166613286{fill:#fff;}.cls-2_1543166613286{fill:#21298a;}</style></defs><g data-name="Layer 2" id="Layer_2_1543166613286"><g data-name="DESIGNED BY FREEPIK" id="DESIGNED_BY_FREEPIK_1543166613286"><rect ry="21" rx="21" height="57.31" width="60.77" x="9.72" class="cls-1_1543166613286" vector-effect="non-scaling-stroke"/><rect ry="2.58" rx="2.58" height="17.54" width="5.38" y="19.6" x="74.66" class="cls-2_1543166613286" vector-effect="non-scaling-stroke"/><rect ry="2.58" rx="2.58" height="17.54" width="5.38" y="19.6" class="cls-2_1543166613286" vector-effect="non-scaling-stroke"/><path d="M22.55,20H57.5a5.62,5.62,0,0,1,5.62,5.62v4.42a5.62,5.62,0,0,1-5.62,5.62H22.55a5.63,5.63,0,0,1-5.63-5.63V25.65A5.62,5.62,0,0,1,22.55,20Z" class="cls-2_1543166613286" vector-effect="non-scaling-stroke"/><path d="M36.62,28a3.82,3.82,0,1,1-3.82-3.82A3.82,3.82,0,0,1,36.62,28Z" class="cls-1_1543166613286" vector-effect="non-scaling-stroke"/><path d="M52.79,27.75A3.82,3.82,0,1,1,49,23.93,3.82,3.82,0,0,1,52.79,27.75Z" class="cls-1_1543166613286" vector-effect="non-scaling-stroke"/></g></g></g></svg>