<svg xmlns="http://www.w3.org/2000/svg" viewBox="0 0 30 30"><title>dashboard logoAsset 127</title><g id="Layer_2" data-name="Layer 2"><g id="DESIGNED_BY_FREEPIK" data-name="DESIGNED BY FREEPIK"><path d="M10,13H3a3,3,0,0,1-3-3V3A3,3,0,0,1,3,0h7a3,3,0,0,1,3,3v7A3,3,0,0,1,10,13ZM3,2A1,1,0,0,0,2,3v7a1,1,0,0,0,1,1h7a1,1,0,0,0,1-1V3a1,1,0,0,0-1-1Z" fill="#21298A"/><path d="M27,13H20a3,3,0,0,1-3-3V3a3,3,0,0,1,3-3h7a3,3,0,0,1,3,3v7A3,3,0,0,1,27,13ZM20,2a1,1,0,0,0-1,1v7a1,1,0,0,0,1,1h7a1,1,0,0,0,1-1V3a1,1,0,0,0-1-1Z" fill="#21298A"/><path d="M10,30H3a3,3,0,0,1-3-3V20a3,3,0,0,1,3-3h7a3,3,0,0,1,3,3v7A3,3,0,0,1,10,30ZM3,19a1,1,0,0,0-1,1v7a1,1,0,0,0,1,1h7a1,1,0,0,0,1-1V20a1,1,0,0,0-1-1Z" fill="#21298A"/><path d="M27,30H20a3,3,0,0,1-3-3V20a3,3,0,0,1,3-3h7a3,3,0,0,1,3,3v7A3,3,0,0,1,27,30ZM20,19a1,1,0,0,0-1,1v7a1,1,0,0,0,1,1h7a1,1,0,0,0,1-1V20a1,1,0,0,0-1-1Z" fill="#21298A"/></g></g></svg>
