<svg version="1.2" overflow="visible" preserveAspectRatio="none" viewBox="0 0 672.6900024414062 438.19000244140625" xmlns="http://www.w3.org/2000/svg" width="59.500000000005" height="38.71940298508"><g transform="translate(1, 1)"><defs><style>.cls-1_1543997658024{fill:#f7f7f8;}</style></defs><g data-name="Layer 2" id="Layer_2_1543997658024"><g data-name="DESIGNED BY FREEPIK" id="DESIGNED_BY_FREEPIK_1543997658024"><path d="M190.39,436.19a5.46,5.46,0,0,1-2-.39c-13.18-5.35-23.8-17.42-28.4-32.31-4.06-13.11-3.63-28,1.24-42.94.74-2.27,1.57-4.53,2.38-6.71a76.42,76.42,0,0,0,4.23-14.15c1.22-7.51-.49-14.28-4.56-18.14a68.49,68.49,0,0,0-7.7-6.05A58.92,58.92,0,0,1,145.36,307c-3.23-3.58-6.26-7.18-7.8-11.79-1.91-5.74-.69-11.73,3.12-15.25a22.81,22.81,0,0,1,2.31-1.78,6.42,6.42,0,0,0,2.32-2.13,7,7,0,0,0-.72-2.58,19.38,19.38,0,0,1-1-2.79,15.23,15.23,0,0,1-9.76-5.39c-.39-.48-.74-1-1.1-1.48a12.63,12.63,0,0,0-1.33-1.68c-1.38-1.34-3.72-1.81-6.19-2.31-3.08-.63-6.58-1.34-9.23-4-.49-.49-.9-1-1.27-1.45a10.8,10.8,0,0,0-.94-1.07c-1.08-1-3-1.31-4.94-1.66l-1-.18c-5.12-.93-11.49-2.09-15.78-5.5a35,35,0,0,1-11.88-18c-.5-1.8-.84-3.61-1.17-5.36a49.27,49.27,0,0,0-1.34-5.8c-2-6.19-7-12-13.43-15.51s-14.12-9.53-14.95-18.64a29.22,29.22,0,0,1,.63-7.89,38.74,38.74,0,0,0,.6-4.55,23.52,23.52,0,0,0-4-13.4c-3.32-4.7-3.83-10.53-4.23-15.22-.34-4-.73-8.42.63-12.76a32.33,32.33,0,0,1,4-7.83c.79-1.24,1.54-2.4,2.17-3.6,1.43-2.69,2.39-6.4.78-8.72-1.29-1.86-4.17-2.69-6.22-3.15l-1.75-.4c-7.92-1.82-16.9-3.87-22.27.57-4.07,3.37-9.78,1.89-12.53,1.18-1.44-.37-4.8-1.24-5.94-4.38a7.72,7.72,0,0,1,.38-5.4c.07-.2.15-.41.21-.61.91-2.84.44-6.64-1-8.45l-.58-.72-.08-.91c-.27-3-1-10.9,4.62-14.46a14.4,14.4,0,0,1,2.71-1.26,12.44,12.44,0,0,0,1.28-.53,2.51,2.51,0,0,0,.65-.45,9.91,9.91,0,0,0-.83-1,17.37,17.37,0,0,1-1.2-1.46c-2.2-3.1-.51-5.63.39-7l0-.07a5.42,5.42,0,0,1,.55-2.52,6.8,6.8,0,0,1,4.07-3.48,12.73,12.73,0,0,1,4.92-.3l1.06.08a22.81,22.81,0,0,0,5.34-.27,17.76,17.76,0,0,0-2.67-3.45l-.45-.49C19,48,16.31,43.94,16.59,40.32a5.55,5.55,0,0,1,2-4c6.44-5.25,14.82-7.41,22-5.73C47.26,29.44,57.4,32,59.41,39.05c.54,1.87,3.1,3.16,5.57,4.41l.52.26A56.2,56.2,0,0,1,78,52.58c4.84-.47,7-1.59,7.94-2.5l.74-.7,1-.1a22.39,22.39,0,0,1,10.16,1.33c1.49.56,4.31.48,7,.41,4.2-.12,8.53-.24,11.54,1.68a38.67,38.67,0,0,1,7.26,6.5c2.84,3,5.52,5.85,8.93,6.71a20.61,20.61,0,0,0,4.84.39c.77,0,1.55,0,2.33,0,10.65.46,20.22,6.74,23.81,15.62a21.24,21.24,0,0,1-.31,16.27,17.4,17.4,0,0,1-9.86,9.5l-1,.36-1-.34a10.43,10.43,0,1,0-5.62,20.08c.6.14,1.25.23,1.94.33a16.2,16.2,0,0,1,4.92,1.25,16.48,16.48,0,0,1,5.36,4.61c.52.61,1,1.18,1.51,1.69a5,5,0,0,0,3,1.73,2.76,2.76,0,0,0,2.11-1.26,6.44,6.44,0,0,0,1.24-3.57,23.34,23.34,0,0,0-1-6.15c-.35-1.37-.72-2.79-1-4.28-.73-4.52.14-10.32,4.75-13,4.84-2.85,10.91-.41,14,3.61a21.21,21.21,0,0,1,3.61,8.57,41.35,41.35,0,0,1,7.42-.73c.55,0,1.08,0,1.6-.06l1.48-.07.95,1.13c2.42,2.86,3,6.44,3.57,9.6.12.69.24,1.39.38,2.07a29,29,0,0,0,4.06,10c.37.56.75,1.11,1.14,1.66a23.16,23.16,0,0,1,3.56,6.59,13.62,13.62,0,0,1-11.75,16.88,25.44,25.44,0,0,1-5.05-.31c-2.35-.31-4.37-.57-5.61.32a8.46,8.46,0,0,0-2.12,3.4,26.65,26.65,0,0,1-1.36,2.73c-1.51,2.55-4.34,7.3-10.49,7a27.24,27.24,0,0,0-11.66,2.09c-1.64.69-1.83,1.15-1.85,1.2a5.59,5.59,0,0,0,.6,2.2c.23.58.47,1.19.66,1.85,1.28,4.38-.29,9.59-4,13.27-.47.47-.94,1-1.41,1.48-2.41,2.58-5.4,5.78-9.75,5.78h-.15a5.76,5.76,0,0,0-5.25,3.85,15.81,15.81,0,0,0-.43,2.25c-.09.67-.19,1.37-.35,2.1a8.44,8.44,0,0,1-3.84,5.83,6.54,6.54,0,0,1-6.19.13,4.2,4.2,0,0,1-2.18-3.66c0-4.48-5.22-7.76-9.83-7.89-5.23-.16-10.49,2.94-12.37,7.36s0,10.37,4,12.38c2.38,1.2,5.48,1.3,8.21,1.39,3.37.11,7.19.23,10.69,1.9,4.43,2.11,7.12,6.54,6.55,10.75-.09.65-.23,1.25-.37,1.84-.09.38-.21.89-.26,1.27l.28.05a9.27,9.27,0,0,1,2,.53c2.55,1.06,3.63,3.4,4.41,5.1a15.11,15.11,0,0,0,.8,1.57c.57.89,3.09,1.65,5.19,1.58a13.16,13.16,0,0,1,6.47-7.7,12.74,12.74,0,0,1,12.17-.35,25.21,25.21,0,0,1,2.71,1.75c1.44,1,2.8,2,3.75,1.8a6.17,6.17,0,0,0,1.2-.48,16.09,16.09,0,0,1,1.66-.69c4.07-1.33,8.19.56,10.65,1.7,7,3.21,14.89,6.86,20.45,13.42,1.08,1.29,2,2.64,3,3.95,1.68,2.38,3.27,4.62,5.35,6.09,3.43,2.42,8.23,2.75,12.85,2.89h.49c5,.14,10.7.3,15.6,3,5.81,3.22,9.27,10.45,7.89,16.45a34.75,34.75,0,0,1-6.09,13c-.44.58-.9,1.16-1.37,1.74-1.72,2.15-3.34,4.17-3.54,6.29a13.28,13.28,0,0,0,.64,4.19c.24.91.48,1.85.65,2.85a13,13,0,0,1-1,8.19c-.67,1.28-2.69,5.16-6.73,5.82a30.56,30.56,0,0,1-6.4.15c-3.15-.15-5.86-.28-7.55,1.17-1.89,1.63-1.91,4.49-1.72,9a45.54,45.54,0,0,1,0,5.48c-.65,7.82-6.06,15.09-14.14,19l-.74.35a8.67,8.67,0,0,0-2.64,1.59,9.65,9.65,0,0,0-1.4,3.24c-.76,2.44-1.71,5.49-4.9,6.89a10.14,10.14,0,0,1-2.51.67,7.12,7.12,0,0,0-1,.2c-.91.31-1.65,1.67-1.7,3.1a10.38,10.38,0,0,0,.58,2.9,16.2,16.2,0,0,1,.83,4.22A14.2,14.2,0,0,1,188,408.9q-.39.47-.81.93a5.55,5.55,0,0,0-1.23,1.7c0,.44.89,1.62,1.2,2,1,1.26,2.12,2.51,3.32,3.83a45,45,0,0,1,6.46,8.38,6.8,6.8,0,0,1-1,7.76A8,8,0,0,1,190.39,436.19ZM150.74,264.34l-1.31,4.26a7.2,7.2,0,0,0,.73,2.63c.77,1.93,1.73,4.34.76,6.91s-2.9,3.82-4.49,4.93a15.74,15.74,0,0,0-1.67,1.27c-2.36,2.18-2.43,6.16-1.5,8.93,1.17,3.52,3.77,6.59,6.56,9.68a53.76,53.76,0,0,0,9.21,7.66,74,74,0,0,1,8.35,6.59c5.51,5.21,7.89,14,6.36,23.44a82.54,82.54,0,0,1-4.53,15.28c-.79,2.12-1.6,4.32-2.3,6.48-3.13,9.62-5.88,24.26-1.22,39.32,4.05,13.12,13.3,23.74,24.76,28.45a2.83,2.83,0,0,0,1.07-.74.85.85,0,0,0,.1-.83,40.88,40.88,0,0,0-5.64-7.21c-1.21-1.34-2.46-2.72-3.58-4.14-1-1.27-2.69-3.41-2.47-6.2a9,9,0,0,1,2.73-5.21c.22-.25.44-.49.65-.74a8.09,8.09,0,0,0,1.79-5.28,11.54,11.54,0,0,0-.58-2.7,14.88,14.88,0,0,1-.83-4.8c.11-3.32,1.94-7.26,5.77-8.56a11.1,11.1,0,0,1,1.94-.45,5.41,5.41,0,0,0,1.07-.24c.64-.28,1.05-1.45,1.59-3.19a14.18,14.18,0,0,1,2.63-5.42,13.25,13.25,0,0,1,4.61-3.06l.67-.31c6.07-2.92,10.3-8.44,10.76-14.07a39.44,39.44,0,0,0,0-4.73c-.2-4.76-.42-10.16,3.81-13.8,3.5-3,7.89-2.81,11.75-2.63a25.71,25.71,0,0,0,5.15-.07c.4-.07,1.24-.5,2.37-2.67a7.21,7.21,0,0,0,.45-4.42c-.12-.75-.32-1.53-.54-2.36a17.73,17.73,0,0,1-.8-6.24c.36-3.91,2.74-6.87,4.83-9.48.43-.54.86-1.07,1.27-1.61a28.7,28.7,0,0,0,5-10.76c.79-3.42-1.48-7.94-5-9.87-3.62-2-8.32-2.15-12.86-2.27l-.49,0c-5.54-.16-11.35-.59-16.14-4-2.92-2.07-4.89-4.84-6.79-7.52-.89-1.26-1.73-2.45-2.65-3.54-4.7-5.55-12-8.9-18.38-11.86-2.34-1.07-4.57-2-6.27-1.44-.28.1-.62.26-1,.43a11,11,0,0,1-2.62.94c-3.48.66-6.18-1.26-8.35-2.8a21.35,21.35,0,0,0-2.09-1.38,7.51,7.51,0,0,0-10.25,5.59l-.15,2-1.86.64c-3.81,1.31-11.07.5-13.78-3.77a17.08,17.08,0,0,1-1.18-2.27c-.4-.85-.89-1.92-1.27-2.07a5,5,0,0,0-.78-.17,6.73,6.73,0,0,1-3.51-1.45c-2.49-2.2-1.76-5.3-1.32-7.16.11-.47.22-.91.27-1.26.24-1.84-1.47-3.71-3.2-4.54-2.36-1.13-5.37-1.22-8.29-1.32-3.18-.1-7.15-.23-10.71-2-6.9-3.46-10-12.67-6.88-20.1,2.86-6.71,10.28-11.24,18.06-11,6.84.2,14.16,4.89,15.46,11.78a4.57,4.57,0,0,0,.55-1.47c.11-.51.19-1.06.27-1.65a20,20,0,0,1,.64-3.21,11.73,11.73,0,0,1,11-8.06h.15c1.75,0,3.58-2,5.36-3.87.53-.57,1.05-1.13,1.57-1.65,1.78-1.76,3.23-4.71,2.46-7.33-.12-.4-.3-.86-.49-1.34-.64-1.63-1.52-3.87-.69-6.31.92-2.74,3.42-4.06,5.21-4.81a33.41,33.41,0,0,1,14.23-2.56c2,.09,3.15-.83,5.08-4.09a22.52,22.52,0,0,0,1.05-2.14c.89-2,1.9-4.24,4.09-5.81,3.16-2.28,6.74-1.81,9.89-1.4a21.62,21.62,0,0,0,3.87.28,7.68,7.68,0,0,0,6.4-9.2,18.15,18.15,0,0,0-2.74-4.86c-.42-.61-.84-1.21-1.23-1.82a34.42,34.42,0,0,1-4.92-12c-.15-.74-.28-1.5-.41-2.26a20,20,0,0,0-1.5-5.6c-3,.1-6.32.22-8.54,1.37l-3.63,1.88-.7-4c-.56-3.23-1.19-6.89-3.11-9.4-1.43-1.87-4.32-3.18-6.18-2.09s-2.3,4.28-1.87,6.93c.19,1.21.51,2.44.84,3.74a27.74,27.74,0,0,1,1.21,7.8,12.43,12.43,0,0,1-2.45,7,8.51,8.51,0,0,1-7,3.63,10.46,10.46,0,0,1-7.1-3.51c-.65-.66-1.23-1.34-1.8-2a11.87,11.87,0,0,0-3.37-3.1,12,12,0,0,0-3.2-.73c-.78-.11-1.58-.22-2.41-.41a16.43,16.43,0,0,1,7.71-31.95,11.73,11.73,0,0,0,5.59-5.94A15.12,15.12,0,0,0,158,84.22c-2.67-6.64-10.29-11.52-18.51-11.88-.7,0-1.4,0-2.1,0a25.25,25.25,0,0,1-6.27-.57c-5.1-1.29-8.52-4.91-11.83-8.42a34.43,34.43,0,0,0-6.11-5.55c-1.46-.93-5.17-.83-8.16-.74-3.46.09-6.73.18-9.32-.8a16.41,16.41,0,0,0-6.55-1c-2.62,2-6.59,3.13-12.09,3.5l-1.33.08-1-.93a51.08,51.08,0,0,0-12-8.76l-.5-.25C59,47.16,54.9,45.09,53.64,40.7c-.92-3.23-8-5.11-12.4-4.12l-.73.17-.72-.2c-5.4-1.46-12.14.23-17.23,4.31,0,.83,1,3.17,2.57,5l.43.47c2.18,2.4,5.17,5.7,4.49,10l-.24,1.51-1.36.7c-3.22,1.64-7.18,1.69-10.27,1.55l-1.26-.09a8.33,8.33,0,0,0-2.68.05,1,1,0,0,0-.3.19l.37,1-.72,1.26c-.26.46-.53.87-.79,1.26l-.3.45q.27.33.57.66a7.42,7.42,0,0,1,2.44,5.1,6.65,6.65,0,0,1-4,5.72,17,17,0,0,1-1.86.78A9.93,9.93,0,0,0,8,77.08c-1.62,1-2.24,3.59-1.93,8,2.67,4,2.69,9.55,1.51,13.27-.08.25-.17.5-.26.75A8.05,8.05,0,0,0,7,100.47a5.56,5.56,0,0,0,1.78.66c2.86.74,5.71,1.25,7.21,0,7.65-6.33,18.62-3.82,27.43-1.8l1.73.39c3,.68,7.34,2,9.83,5.59,2.67,3.85,2.52,9.45-.41,15-.75,1.41-1.59,2.73-2.41,4a27.71,27.71,0,0,0-3.37,6.38c-1,3.22-.68,6.9-.37,10.46.36,4.18.77,8.9,3.15,12.27a29.21,29.21,0,0,1,5,17.14,42.12,42.12,0,0,1-.68,5.3,24.69,24.69,0,0,0-.57,6.32C56,189,63,193.81,67.18,196.08c7.77,4.24,13.85,11.33,16.27,19A55.09,55.09,0,0,1,85,221.54c.33,1.71.63,3.32,1.06,4.88a29,29,0,0,0,9.83,14.86c3.12,2.48,8.66,3.49,13.12,4.3l1,.17c2.6.46,5.55,1,7.92,3.12a14.43,14.43,0,0,1,1.58,1.75,10.65,10.65,0,0,0,.82.95c1.37,1.36,3.72,1.83,6.21,2.34,3,.62,6.52,1.32,9.16,3.87a17.36,17.36,0,0,1,2.06,2.53c.27.39.55.78.85,1.15a9.25,9.25,0,0,0,7.77,3.28Z" class="cls-1_1543997658024" vector-effect="non-scaling-stroke"/><path d="M235,116.52a12.4,12.4,0,0,1-2.86-.34c-3.77-.91-7.14-3.71-10-8.31a29,29,0,0,1-4.42-11.79c-.88-7.29,1.78-14,4.35-20.52.53-1.35,1.06-2.69,1.55-4,2.27-6.16,4-14.65-.36-20.07-1.67-2.06-4.13-3.52-6.74-5.06a51.76,51.76,0,0,1-4.89-3.15c-5.22-4-8.76-11.23-5-16.94h0c2.9-4.42,7.72-5,11.6-5.51,2.64-.33,5.14-.64,6.63-2,1.78-1.59,2.52-3.77,3.37-6.29,1.31-3.87,2.94-8.7,9.13-11.3C242-.71,246.87.06,251.18.73a45.73,45.73,0,0,0,5.12.63c3.24.15,6.58,0,9.8-.1,7.25-.28,14.74-.56,22.29,2.1,8.77,3.09,17.72,11.05,18,21.87a25.71,25.71,0,0,1-1.63,9.09c-2.22,6.33-6,11.91-9.56,17.31C290.93,58,286.92,64,285.39,70.89c-.45,2-.71,4.24-1,6.55-.79,6.47-1.69,13.81-7.4,18.36-3.58,2.85-7.84,3.61-11.95,4.34a29,29,0,0,0-7.66,2c-2.6,1.28-4.77,3.46-7.06,5.77-.92.92-1.87,1.87-2.86,2.78C244.45,113.51,240,116.52,235,116.52ZM211.66,29.59c-1.61,2.45.57,6.56,3.62,8.86a46.08,46.08,0,0,0,4.33,2.78c2.94,1.74,6,3.54,8.33,6.43,4.91,6,5.37,15,1.34,25.94-.51,1.38-1.05,2.77-1.6,4.17-2.4,6.07-4.67,11.81-4,17.6a23.33,23.33,0,0,0,3.56,9.33c2,3.22,4.13,5.12,6.31,5.64,3.76.91,7.78-2.13,9.85-4,.89-.82,1.74-1.68,2.65-2.59,2.55-2.56,5.18-5.21,8.68-6.92A33.93,33.93,0,0,1,264,94.23c3.53-.63,6.87-1.22,9.26-3.12,3.79-3,4.47-8.55,5.18-14.4.29-2.35.58-4.78,1.1-7.11,1.76-8,6.28-14.77,10.65-21.31C293.74,43,297.1,38,299.07,32.34a20,20,0,0,0,1.29-7c-.18-7.91-7.37-14-14-16.35s-13.07-2-20.06-1.77c-3.35.13-6.81.26-10.3.1a50.38,50.38,0,0,1-5.78-.69c-3.86-.6-7.5-1.18-10.56.1-3.7,1.56-4.57,4.13-5.77,7.69-1,2.91-2.09,6.2-5,8.84s-6.61,3.05-9.89,3.46c-3.68.46-6,.84-7.32,2.84Z" class="cls-1_1543997658024" vector-effect="non-scaling-stroke"/><path d="M375.74,365c-.86,0-1.71,0-2.55-.08a12.56,12.56,0,0,1-6.38-1.75c-3.64-2.43-4.25-6.69-4.74-10.11-.09-.67-.19-1.34-.3-2-.93-5.07-4.11-10-7.19-14.83-4.79-7.46-9.74-15.19-7.18-24.25a31.17,31.17,0,0,1,1.23-3.38,13.53,13.53,0,0,0,1.29-4.48c.06-2.79-2.09-5.23-4.58-8.07a40.83,40.83,0,0,1-3.84-4.84,20.26,20.26,0,0,1-3-13,10.74,10.74,0,0,1-5.24-2.37c-.85-.7-1.58-1.45-2.3-2.17a11,11,0,0,0-3.24-2.64c-1.49-.61-3.48-.34-5.6-.05l-1.13.16c-13.66,1.72-27.47-3.73-35.2-13.89-8.44-11.1-8.6-27.25-.37-37.57,3.32-4.17,7.67-7.2,11.88-10.14,5.05-3.52,9.83-6.85,12.35-11.78l.13-.24a15.7,15.7,0,0,1-9.51-6.61,12.7,12.7,0,0,1-.92-11.27,10.2,10.2,0,0,1,6.8-6.36,16.61,16.61,0,0,1,7.39.17c1,.17,1.9.34,2.77.4a5,5,0,0,0,3.4-1c.3-.27.3-.44.3-.53,0-.85-1.81-1.89-3.41-2.8-2.66-1.52-6.29-3.6-6.53-7.77l-.14-2.43,2.35-.64a121.44,121.44,0,0,0,18.29-6.54c.91-4.49,5.26-8.87,12.2-9.5a38.69,38.69,0,0,1,7.88.31,36.81,36.81,0,0,0,6.38.32c3.47-.25,7.21-2.4,7.25-5.22a12.65,12.65,0,0,0-.21-1.94c-.3-1.93-.72-4.58,1-6.9,1.91-2.6,5.06-2.94,7.59-3.22l.46,0-1.49-.18a29.5,29.5,0,0,1-3.91-.62A9.46,9.46,0,0,1,361.94,112a15.09,15.09,0,0,1,2.13-2.86,9.4,9.4,0,0,0,1.37-1.79s0,0,0,0a9.51,9.51,0,0,0-4.77,3.61A18.28,18.28,0,0,0,357.75,124c.1.6.22,1.2.33,1.8a19,19,0,0,1,.37,8,9.36,9.36,0,0,1-4.71,6.11,6.7,6.7,0,0,1-5.77.29c-2.35-1-3.5-3-4.43-4.62a9.85,9.85,0,0,0-1.29-1.91A9.42,9.42,0,0,0,339,132a14.13,14.13,0,0,1-5.39-3c-4.09-4.07-3-10.72.15-15.19a40,40,0,0,1,3.89-4.5,27.54,27.54,0,0,0,3.91-4.73c1.42-2.39,2-5.3,2.68-8.38.73-3.45,1.49-7,3.44-10.29,4.86-8.1,15.14-10.62,23.18-9.53,8.31,1.14,15.71,5.41,22.24,9.18,3,1.73,6.69,5.09,7.3,8.89a6.47,6.47,0,0,1-1.59,5.43c-2.67,3-6.56,2.45-9.4,2a22.68,22.68,0,0,0-2.65-.27,5.39,5.39,0,0,0,1,1.09,8.09,8.09,0,0,0,6.14,1.61c4-.68,7.41-3.49,11.43-7.1l15.2-13.64c8.5-7.63,17-9.3,22.07-4.37,1.72,1.12,9.53.08,10.91-1.45,1.43-2,1.51-5,1.6-8.18v-.39c.13-4.32.69-8.77,3.88-12a18.62,18.62,0,0,1,3.37-2.51,7.25,7.25,0,0,0,2.76-2.33,7.44,7.44,0,0,0,.27-2.83,21.25,21.25,0,0,1,.06-2.37c.94-10.66,13.76-14.84,18-16.22,3-1,7.1-2.32,11.29-1.95s9,2.85,10.62,7.59a20.18,20.18,0,0,1,.74,4c.06.56.12,1.17.22,1.71a32.06,32.06,0,0,1,28.89-3c1.77.7,3.48,1.55,5.13,2.38,3.8,1.89,7.39,3.68,10.92,3.25,4.09-.49,7.32-3.83,10.73-7.37,2.77-2.86,5.62-5.81,9.29-7.74,6.27-3.3,13.55-2.8,19.4-2.4l20.24,1.39c3.49.23,7.1.48,10.32-.37A31.93,31.93,0,0,0,625,27.21c1-.42,2.1-.85,3.23-1.22a26.84,26.84,0,0,1,35.06,28c-.05.5-.11,1-.17,1.5a11.9,11.9,0,0,0-.09,3.83c.37,1.58,1.71,3.13,3.13,4.77,2.18,2.51,4.64,5.35,4.49,9.39-.21,5.34-4.66,8.07-8.24,10.26-2.27,1.39-4.41,2.7-5.49,4.41-1.22,1.91-1.21,4.6-1.2,7.45,0,1.17,0,2.37-.07,3.58-.2,3-1.48,7.14-4.48,9.66a7.93,7.93,0,0,1-6.07,1.9c-5.23-.59-8.21-6.26-7.71-11.19a24.8,24.8,0,0,1,2.74-8.2c.37-.79.75-1.58,1.09-2.39.75-1.78,1.81-5.1.47-7.23a3.54,3.54,0,0,0-6.53,1.92c0,.28,0,.56.06.85a9.75,9.75,0,0,1,0,2.79c-.55,3-2.24,5-4.53,5.55A57.4,57.4,0,0,1,619.26,99a62.46,62.46,0,0,0-8.87,4.52c-5.61,3.67-9.61,10.88-6.62,15.76,1.45,2.37,4.26,3.83,7.22,5.38a29.42,29.42,0,0,1,7.82,5.21,21.51,21.51,0,0,1,5.35,11c2,9.68-.73,20.16-7.43,28.73s-16.21,13.73-26.08,14.15l-.6,0a8.34,8.34,0,0,0-2.65.35,2.19,2.19,0,0,0-1.29,1.41c-.7,2,0,5.64,1.62,8.68.63,1.18,1.3,2.34,2,3.51,2.56,4.49,5.2,9.13,6.31,14.47,1.48,7.13-.74,16.23-7.86,19.8-3.56,1.8-7.3,1.79-10.91,1.77a34.33,34.33,0,0,0-5.57.28,7.52,7.52,0,0,0-5.32,4.29,1.63,1.63,0,0,0,0,1.46c5.47,3.17,8.78,7.23,9.58,11.77a11.15,11.15,0,0,1-3.39,9.83,8.42,8.42,0,0,1-7.84,2.27c-2.91-.7-4.88-2.76-6.62-4.57a17.63,17.63,0,0,0-2.45-2.26c-.08,1.51,1,4,2.43,6.12,1.92,2.89,3.64,7.28,2.7,10.93a6.85,6.85,0,0,1-3.52,4.47L555,279.49l-1.54-1.95a52.86,52.86,0,0,1-11.16-29l-4.35.63-1-.65c-3.78-2.57-5.18-6.78-6.42-10.5-.42-1.25-.81-2.43-1.28-3.52-.9-2.1-3.1-4.14-4.9-4.52a1.58,1.58,0,0,0-1.59.35c-.75.69-1,2.15-1.3,3.84a13.44,13.44,0,0,1-2.42,6.56,13,13,0,0,1-5.2,3.49,10.23,10.23,0,0,0-2.83,1.61c-1.42,1.37-1.52,4-1.63,6.82,0,.82-.07,1.62-.13,2.4a13,13,0,0,1-4.61,9.18,7,7,0,0,1-5.86,1.28l-1.73-.39-.49-1.71a71.54,71.54,0,0,0-20.33-33,14.75,14.75,0,0,0-3-2.31,17.39,17.39,0,0,0-4.94-1.32l-.53-.09a105,105,0,0,1-13.58-3.3,7.85,7.85,0,0,1,2.85,2.74,9.73,9.73,0,0,1,1.13,7.71c-1.12,4-4.15,6.64-7,8.75a67.44,67.44,0,0,1-28.14,12.23l-.67.13c4.84,1.16,11-.35,16.24-2l4.53-1.43-.67,4.71a43.53,43.53,0,0,1-17.28,28.87c-1.08.79-2.22,1.56-3.32,2.31-4.7,3.19-9.14,6.2-9.71,10.65-.36,2.75.89,5.66,2.2,8.74.36.83.71,1.65,1,2.47,2.57,6.53,2,12.27-1.53,15.75a15.75,15.75,0,0,1-4.73,3c-.41.19-.82.38-1.23.59a18.23,18.23,0,0,0-9.74,15.31c0,.74,0,1.5,0,2.31a23.25,23.25,0,0,1-.31,5.65C396,361.08,385.77,365,375.74,365Zm-23.2-107.61-7.19,17.83a14.15,14.15,0,0,0,1.2,12.77,35.43,35.43,0,0,0,3.3,4.12c2.89,3.3,6.18,7,6.07,12.16a18.39,18.39,0,0,1-1.74,6.62,27.41,27.41,0,0,0-1,2.74c-1.83,6.47,2,12.45,6.46,19.38,3.39,5.29,6.9,10.76,8,17,.13.72.24,1.46.34,2.2.37,2.59.72,5,2.13,6a7.52,7.52,0,0,0,3.44.75c7.94.52,17.12-1.83,18.48-8.25a18,18,0,0,0,.18-4.22c0-.86-.05-1.75,0-2.67a24,24,0,0,1,13-20.49c.46-.23.94-.45,1.41-.67a11.21,11.21,0,0,0,3-1.79c2.54-2.5.75-7.73.15-9.27-.3-.77-.64-1.54-1-2.31-1.5-3.52-3.2-7.5-2.63-11.86.92-7.13,7-11.23,12.29-14.85,1.11-.75,2.15-1.46,3.15-2.19a38.2,38.2,0,0,0,13.9-20.22c-7.63,1.88-16,2.41-21.92-3.15-2.54-2.4-4-5.46-5.3-8.16l-11.27-23.54c-.51-1.08-1.58-3.31-.69-5.65a4.84,4.84,0,0,1,4.11-3.23c3.21-.34,6.71,2.22,8.38,4.8a256.16,256.16,0,0,1,15.35,27.35,61.65,61.65,0,0,0,23.39-10.69c2-1.5,4.15-3.34,4.78-5.57a3.78,3.78,0,0,0-.42-2.88,1.61,1.61,0,0,0-1-.8,7.18,7.18,0,0,0-1.76.11l-1,.14c-7,.73-13.84-3-21-11.43l-1.71-2,1.75-1.95c5.13-5.76,13.9-1.74,17.19-.22a99.79,99.79,0,0,0,24.45,7.59l.52.09a22.49,22.49,0,0,1,6.69,1.9,20.35,20.35,0,0,1,4.33,3.23,77.5,77.5,0,0,1,21.19,33,7.81,7.81,0,0,0,1.78-4.44c.05-.71.08-1.44.11-2.17.14-3.5.31-7.86,3.45-10.9a15,15,0,0,1,4.56-2.78,8.28,8.28,0,0,0,3-1.79,8.83,8.83,0,0,0,1.17-3.8c.4-2.3.89-5.16,3.15-7.24a7.56,7.56,0,0,1,6.91-1.8c3.71.8,7.48,4.1,9.16,8,.56,1.31,1,2.67,1.45,4,.89,2.66,1.73,5.19,3.29,6.76l8.62-1.24v3.45a46.75,46.75,0,0,0,1.42,11.19,7.31,7.31,0,0,1,2.79-5.38l.83-.65h1c3.71,0,6.15,2.57,8.11,4.61,1.29,1.34,2.5,2.61,3.72,2.9a2.55,2.55,0,0,0,2.31-.81,5.2,5.2,0,0,0,1.6-4.41c-.64-3.6-4.23-6.27-7.13-7.88l-.43-.24-.33-.36a7.54,7.54,0,0,1-1.49-7.75,13.39,13.39,0,0,1,10-8.25,38.91,38.91,0,0,1,6.59-.37c3,0,5.91,0,8.2-1.13,4.36-2.19,5.67-8.45,4.67-13.22-.91-4.41-3.21-8.45-5.64-12.72-.69-1.21-1.38-2.42-2-3.63-2-3.67-3.54-9.15-2-13.52a8.18,8.18,0,0,1,4.63-5,13,13,0,0,1,4.77-.8l.54,0c8.12-.35,16-4.67,21.61-11.85s7.91-15.88,6.28-23.84a15.71,15.71,0,0,0-3.76-8,24.39,24.39,0,0,0-6.3-4.09c-3.39-1.77-7.24-3.77-9.56-7.56-5-8.11.51-18.73,8.45-23.92a68.44,68.44,0,0,1,9.7-5c3.94-1.76,7.66-3.42,10.78-5.9l.78-.63.69,0a2.88,2.88,0,0,0,.25-.81,5.14,5.14,0,0,0,0-1.15c0-.45-.08-.89-.09-1.34a9.53,9.53,0,0,1,17.59-5.18c2.12,3.33,2.11,7.75,0,12.78-.38.88-.79,1.75-1.2,2.62a20.26,20.26,0,0,0-2.19,6.23c-.2,1.95.84,4.45,2.41,4.62a1.94,1.94,0,0,0,1.55-.53,8.28,8.28,0,0,0,2.34-5.45c.07-1,.06-2.06.06-3.17,0-3.42,0-7.3,2.13-10.69,1.83-2.88,4.81-4.7,7.43-6.31,3.28-2,5.3-3.34,5.37-5.37.07-1.67-1.36-3.32-3-5.23s-3.74-4.31-4.44-7.34a16.54,16.54,0,0,1,0-5.91c.06-.45.11-.89.15-1.33a20.84,20.84,0,0,0-27.22-21.72c-.93.31-1.86.68-2.84,1.08a38.4,38.4,0,0,1-4.54,1.61c-4.17,1.09-8.46.8-12.25.54l-20.24-1.38c-6.48-.44-11.78-.6-16.2,1.72-2.81,1.48-5.22,4-7.76,6.6C562.3,46,558.17,50.27,552,51c-5.34.65-9.9-1.64-14.32-3.85-1.61-.8-3.13-1.56-4.65-2.16A26.28,26.28,0,0,0,507.45,49l-1.51,1.23-1.74-.89c-3.41-1.73-3.8-5.33-4.09-8a13.92,13.92,0,0,0-.47-2.78c-.7-2.14-3.31-3.32-5.44-3.5-2.74-.24-5.66.62-8.91,1.68-8.92,2.91-13.46,6.52-13.86,11,0,.52,0,1.12,0,1.76a11.86,11.86,0,0,1-.82,5.42c-1.14,2.46-3.29,3.81-5,4.9a13.67,13.67,0,0,0-2.31,1.67c-1.72,1.72-2,4.82-2.13,7.9v.39c-.11,3.74-.22,8-2.73,11.51-2.35,3.31-8.66,4.12-10.53,4.3-3.06.27-7.17.15-9.39-2h0c-4.16-4-12.94,3.61-13.92,4.5l-15.2,13.64c-3.74,3.35-8.39,7.53-14.45,8.54A14,14,0,0,1,384,107.42a10.1,10.1,0,0,1-3.9-7.43L380,98.63l1-.94c2.75-2.59,6.33-2.08,9.2-1.68,1.67.24,3.56.5,4.09-.09a.49.49,0,0,0,.15-.49c-.18-1.13-1.91-3.23-4.38-4.65-6.35-3.67-12.91-7.46-20.05-8.43-6.08-.83-13.77.91-17.22,6.67-1.44,2.4-2.06,5.33-2.72,8.44-.72,3.42-1.47,7-3.39,10.2a31.75,31.75,0,0,1-4.74,5.82,35,35,0,0,0-3.33,3.82c-1.65,2.33-2.43,5.85-.81,7.47a9.76,9.76,0,0,0,3.25,1.65,14,14,0,0,1,5.46,3.09,14.64,14.64,0,0,1,2.2,3.12c.56,1,1.09,1.88,1.6,2.1a.85.85,0,0,0,.68-.11,3.34,3.34,0,0,0,1.58-2.09,14,14,0,0,0-.4-5.54c-.12-.67-.25-1.33-.36-2a24.12,24.12,0,0,1,4-17.62,15.09,15.09,0,0,1,10.11-6.3l.26,0h.27a4.94,4.94,0,0,1,4.12,2.51,7,7,0,0,1,.19,6.48,14.23,14.23,0,0,1-2.24,3.08,9.77,9.77,0,0,0-1.33,1.72,3.49,3.49,0,0,0,2,4.56,24.34,24.34,0,0,0,3,.47c2.92.32,5.93.65,7.65,2.85a5.18,5.18,0,0,1,1,4c-.58,4.53-5,5-7.66,5.3-1.15.13-3.06.34-3.42.82a5.74,5.74,0,0,0,.11,2.42,17.68,17.68,0,0,1,.28,2.94c-.09,6.4-6.59,10.68-12.82,11.12A40.62,40.62,0,0,1,350,149a34.88,34.88,0,0,0-6.69-.3c-3.38.31-7.06,2.6-6.93,5.4l.09,2-1.82.85a126.83,126.83,0,0,1-16.76,6.45c.53.34,1.12.68,1.68,1,2.73,1.56,6.46,3.7,6.43,8.05a6.68,6.68,0,0,1-2.23,4.91,10.78,10.78,0,0,1-7.92,2.53,31.57,31.57,0,0,1-3.38-.49,11.88,11.88,0,0,0-4.8-.27,4.37,4.37,0,0,0-2.75,2.75,6.69,6.69,0,0,0,.41,5.86c2.4,3.79,7.57,4.79,11.27,4.49,1.82-.14,3.08-.59,3.64-1.28a7.53,7.53,0,0,0,.95-2.87c.12-.61.25-1.22.41-1.81a15.89,15.89,0,0,1,11.64-11.18c.56-.12,1.14-.23,1.73-.33,1.39-.25,3-.53,3.32-1.13l1.49-2.42,2.5,1.36a22.65,22.65,0,0,1,3.65,2.46,7.16,7.16,0,0,1,1.07-4.78l1.22-1.87,2.14.63a32.12,32.12,0,0,1,19.22,15.95l.47-1.06a5.1,5.1,0,0,1,4.72-3h.07a7.82,7.82,0,0,1,6.75,4.3,18.34,18.34,0,0,1,1.18,3.73,8.34,8.34,0,0,0,1.1,3.06c1.21,1.56,3.93,1.51,7.94,1.26,4.58-.28,10.27-.64,13.14,4.3a7.94,7.94,0,0,1-.2,8.23,13.15,13.15,0,0,1-11.13,6.05,31.26,31.26,0,0,1-9.07-2.05A31.17,31.17,0,0,0,378,208c-3.14-.31-6.39.46-9.83,1.27a58.76,58.76,0,0,1-6.82,1.33c-7.28.85-15.89-2.25-17.48-9.67-.14-.65-.21-1.28-.28-1.84a5.53,5.53,0,0,0-.37-1.82c-.33-.55-1.67-.84-3.09-.68-3.16.35-6.6,1.92-9.93,3.44-5.28,2.4-11.17,5.08-16.76,3-3.29,4.81-8.08,8.14-12.72,11.39-4,2.81-7.84,5.47-10.62,8.95-6.46,8.1-6.26,21.37.46,30.2,6.45,8.49,18.1,13,29.67,11.56l1.06-.14c2.68-.37,5.72-.79,8.71.44a16.09,16.09,0,0,1,5.24,4,24.45,24.45,0,0,0,1.83,1.75c1.28,1.06,2.91,1.25,3.2.9Zm50.29-34.07,11,22.92c1.12,2.34,2.28,4.76,4,6.39a9.4,9.4,0,0,0,2.56,1.71l-.51-1.1a251,251,0,0,0-16-28.78A5.3,5.3,0,0,0,402.83,223.29Zm31.6-6.82c4.74,4.73,9.06,6.83,13.13,6.4l.83-.11a12.34,12.34,0,0,1,3.34-.13,104.13,104.13,0,0,1-9.85-3.93C438.69,217.24,436.22,216.49,434.43,216.47ZM376.5,202c.69,0,1.39,0,2.09.1a36.05,36.05,0,0,1,7.86,2,26.17,26.17,0,0,0,7.35,1.74,7.15,7.15,0,0,0,5.78-3.12,1.88,1.88,0,0,0,.17-2.14c-.94-1.62-3.49-1.58-7.57-1.33-4.37.28-9.81.62-13.06-3.57a13.34,13.34,0,0,1-2.2-5.36c-.12-.54-.25-1.06-.39-1.53a9,9,0,0,1-.62,2.43,8.18,8.18,0,0,1-5.89,5.08l-2.89.58-.62-2.88a26.47,26.47,0,0,0-13.84-17.61,8.34,8.34,0,0,0,1.2,1.52c.33.35.68.69,1,1,2,2,4.47,4.39,4.94,7.9a7.4,7.4,0,0,1-4.52,7.45,5.28,5.28,0,0,1-6.39-1.53l-.53-.68-.08-.86a17.69,17.69,0,0,0-7.1-12.2,13.8,13.8,0,0,1-5.2,1.68c-.49.09-1,.18-1.44.28a9.93,9.93,0,0,0-7.19,6.91c-.13.47-.23,1-.33,1.44a12,12,0,0,1-2.13,5.4,8.43,8.43,0,0,1-3,2.33c1.7-.57,3.61-1.4,5.79-2.39,3.75-1.71,7.63-3.48,11.73-3.94s7.29.87,8.9,3.53a10,10,0,0,1,1.21,4.26c.05.46.1.89.17,1.25.81,3.76,6.3,5.51,10.93,5a54.31,54.31,0,0,0,6.13-1.21A42.13,42.13,0,0,1,376.5,202ZM353.42,186.3c.15.51.29,1,.41,1.54a.54.54,0,0,0,.05-.26A3.48,3.48,0,0,0,353.42,186.3Zm89.21-107h0Z" class="cls-1_1543997658024" vector-effect="non-scaling-stroke"/><path d="M585.73,295.08a19.16,19.16,0,0,1-7.35-1.77c-2.92-1.24-6.18-2.91-8.26-5.93-3-4.41-1.7-7.76-.64-9.37,4.51-6.83,20.67-7.61,25.44-6.64l1.05.2c2,.38,3.89.74,5,2.49s.82,3.49.41,5.27c-.69,3-7.84,12.57-10.23,14.18A9.59,9.59,0,0,1,585.73,295.08ZM590.46,277c-5.56,0-14.14,1.54-16,4.32-.18.28-.61.93.58,2.66h0c1.21,1.75,3.43,2.86,5.66,3.81,3.35,1.42,5.74,1.67,7.11.74s7.14-8.86,7.77-10.65c0-.09,0-.18,0-.26l-.79-.15-1.13-.22A17.45,17.45,0,0,0,590.46,277Z" class="cls-1_1543997658024" vector-effect="non-scaling-stroke"/><path d="M594.69,313.63c-19,0-37.87-11.1-47-27.79h0c-.89-1.6-2-3.31-3-5a65.14,65.14,0,0,1-4-6.91l-1.29-2.7L542,270c9.48-4.51,21.7,11.85,24.31,16.89.31.59.61,1.2.9,1.8a27.59,27.59,0,0,0,1.86,3.43c2,3,5.52,5.34,10.68,7.15,1.86.65,3.74,1.19,5.73,1.75a74.3,74.3,0,0,1,8.73,2.89,7.45,7.45,0,0,1,4.43,4.85,4.4,4.4,0,0,1-1.18,4l-.87.88-1.24,0ZM552.92,283A46.93,46.93,0,0,0,566,297.86a19.8,19.8,0,0,1-1.92-2.4,33,33,0,0,1-2.28-4.17c-.27-.56-.54-1.11-.82-1.66-2.19-4.23-7.8-10.79-12.2-13.36.29.45.59.91.88,1.38,1.11,1.73,2.26,3.52,3.24,5.3Z" class="cls-1_1543997658024" vector-effect="non-scaling-stroke"/><path d="M641.46,391.57a16.6,16.6,0,0,1-13.86-7.92,43,43,0,0,1-3.64-7.79c-1.64-4.25-3.06-7.92-6.19-9.63-4.54-2.48-10.8.5-16.31,3.49-3.56,1.93-14.41,7.8-22.35,1.84a7.74,7.74,0,0,1-3.42-6,9.32,9.32,0,0,1,1-3.95l.29-.68c1.37-3.52.22-7.68-1-12.08-.36-1.33-.74-2.7-1.05-4.07-1.79-7.84.49-17.13,8.23-18.92a16.68,16.68,0,0,1,3.74-.32,11.44,11.44,0,0,0,2.44-.17c1.9-.45,3.5-2.34,5.2-4.33.4-.47.8-.94,1.21-1.39,5.59-6.26,15.78-12.46,25-11.27,4,.52,7.29,3.2,10.16,5.56a38.61,38.61,0,0,0,3.4,2.62,6.1,6.1,0,0,1,3.69-5.08c3.65-1.45,8.5,1,11.28,5.78a27.35,27.35,0,0,1,3,10.33c9.81,7.63,19.3,17.05,17.86,29.22-.8,6.82-5.11,12.44-8.56,17l-8.11,10.59a20.92,20.92,0,0,1-5.28,5.36A12.57,12.57,0,0,1,641.46,391.57Zm-27.54-32.29a13.69,13.69,0,0,1,6.72,1.69c5.07,2.76,7.11,8.06,8.92,12.73a37.06,37.06,0,0,0,3.09,6.7c2.6,4.06,8.44,6.74,12.34,4.26a16.45,16.45,0,0,0,3.74-3.94l8.1-10.6c3.17-4.14,6.76-8.83,7.37-14,1.13-9.58-7.72-17.77-16.53-24.51l-1-.75-.16-1.23c-.44-3.27-.89-6.66-2.44-9.31-1.37-2.34-3.12-3.21-3.78-3.25a5.73,5.73,0,0,0,.15,3l.81,3.55-3.63.12c-4.15.15-7.42-2.55-10.57-5.15-2.35-1.94-4.78-3.94-7.11-4.24-6.65-.86-15.12,4.16-19.73,9.32h0c-.37.41-.74.85-1.11,1.28-2.15,2.52-4.58,5.37-8.38,6.28a16.19,16.19,0,0,1-3.81.33,11.15,11.15,0,0,0-2.41.17c-4,.91-4.72,7.41-3.73,11.74.28,1.23.62,2.48,1,3.8,1.36,4.91,2.9,10.48.79,15.86-.11.3-.24.59-.37.89a5.58,5.58,0,0,0-.5,1.46,2.29,2.29,0,0,0,1,1.3c3.27,2.46,8.47,1.7,15.89-2.32C603.4,361.84,608.71,359.28,613.92,359.28Z" class="cls-1_1543997658024" vector-effect="non-scaling-stroke"/></g></g></g></svg>