<svg version="1.2" overflow="visible" preserveAspectRatio="none" viewBox="0 0 99.33999633789062 93.48999786376953" xmlns="http://www.w3.org/2000/svg" width="108.72527472527" height="102"><g transform="translate(1, 1)"><defs><style>.cls-1_1543997658021{fill:#fff;}</style></defs><g data-name="Layer 2" id="Layer_2_1543997658021"><g data-name="DESIGNED BY FREEPIK" id="DESIGNED_BY_FREEPIK_1543997658021"><g data-name="&lt;Group&gt;" id="_Group__1543997658021"><path transform="translate(-150 -50)" d="M224.53,141.49A2.5,2.5,0,0,1,222,139V121.62a23.26,23.26,0,0,0-17.95-22.73,2.5,2.5,0,0,1-.45-4.72,12.25,12.25,0,1,0-9.93,0,2.5,2.5,0,0,1-.44,4.72,23.28,23.28,0,0,0-18,22.73V139a2.5,2.5,0,0,1-5,0V121.62a28.23,28.23,0,0,1,16.76-25.89,17.24,17.24,0,1,1,23.22,0A28.22,28.22,0,0,1,227,121.62V139A2.5,2.5,0,0,1,224.53,141.49Z" class="cls-1_1543997658021" vector-effect="non-scaling-stroke"/></g><g data-name="&lt;Group&gt;" id="_Group_2_1543997658021"><path transform="translate(-150 -50)" d="M244.84,125.75a2.5,2.5,0,0,1-2.5-2.5V105.87a23.28,23.28,0,0,0-18-22.73,2.5,2.5,0,0,1-.44-4.71,12.24,12.24,0,1,0-17.21-11.19,2.5,2.5,0,0,1-5,0A17.25,17.25,0,1,1,230.58,80a28.25,28.25,0,0,1,16.76,25.89v17.38A2.5,2.5,0,0,1,244.84,125.75Z" class="cls-1_1543997658021" vector-effect="non-scaling-stroke"/></g><g data-name="&lt;Group&gt;" id="_Group_3_1543997658021"><path transform="translate(-150 -50)" d="M152.5,125.75a2.5,2.5,0,0,1-2.5-2.5V105.87A28.26,28.26,0,0,1,166.75,80a17.24,17.24,0,1,1,28.86-12.74,2.5,2.5,0,1,1-5,0A12.25,12.25,0,1,0,173.4,78.43a2.5,2.5,0,0,1-.44,4.71,23.27,23.27,0,0,0-18,22.73v17.38A2.5,2.5,0,0,1,152.5,125.75Z" class="cls-1_1543997658021" vector-effect="non-scaling-stroke"/></g></g></g></g></svg>