<?xml version="1.0" encoding="UTF-8"?>
<svg width="124px" height="167px" viewBox="0 0 124 167" version="1.1" xmlns="http://www.w3.org/2000/svg" xmlns:xlink="http://www.w3.org/1999/xlink">
    <!-- Generator: Sketch 51.1 (57501) - http://www.bohemiancoding.com/sketch -->
    <title>Group 10</title>
    <desc>Created with Sketch.</desc>
    <defs></defs>
    <g id="Welcome" stroke="none" stroke-width="1" fill="none" fill-rule="evenodd">
        <g id="Group-10" fill="#FFFFFF" fill-rule="nonzero">
            <g id="chatbob-loginAsset-97-(1)" transform="translate(0.000000, 73.000000)">
                <path d="M76.3888889,93.8425926 L47.4074074,93.8425926 C28.0464371,93.7916145 12.3711093,78.0955886 12.345679,58.7345679 L12.345679,35.1080247 C12.3711093,15.747004 28.0464371,0.0509781296 47.4074074,-1.42108547e-14 L76.3888889,-1.42108547e-14 C95.7679414,0.0255043795 111.471409,15.7289721 111.496914,35.1080247 L111.496914,58.7345679 C111.471409,78.1136204 95.7679414,93.8170882 76.3888889,93.8425926 Z M47.4074074,5.40123457 C31.0113713,5.42672728 17.72611,18.7119886 17.7006173,35.1080247 L17.7006173,58.7345679 C17.72611,75.130604 31.0113713,88.4158653 47.4074074,88.441358 L76.3888889,88.441358 C92.784925,88.4158653 106.070186,75.130604 106.095679,58.7345679 L106.095679,35.1080247 C106.070186,18.7119886 92.784925,5.42672728 76.3888889,5.40123457 L47.4074074,5.40123457 Z" id="Shape"></path>
                <rect id="Rectangle-path" x="115.216049" y="32.9475309" width="8.30246914" height="27.0679012" rx="2.58"></rect>
                <rect id="Rectangle-path" x="0" y="32.9475309" width="8.30246914" height="27.0679012" rx="2.58"></rect>
                <path d="M88.7345679,35.617284 L34.7993827,35.617284 C32.4965264,35.6172803 30.2882138,36.5331414 28.6612966,38.1629535 C27.0343793,39.7927656 26.1224456,42.0027029 26.1265432,44.3055556 L26.1265432,51.1111111 C26.1224456,53.4139638 27.0343793,55.6239011 28.6612966,57.2537132 C30.2882138,58.8835253 32.4965264,59.7993864 34.7993827,59.7993827 L88.7345679,59.7993827 C93.5269401,59.7908705 97.407415,55.9034909 97.4074074,51.1111111 L97.4074074,44.3055556 C97.407415,39.5131758 93.5269401,35.6257962 88.7345679,35.617284 Z M50.617284,54.5216049 C48.2329541,54.5216049 46.0834006,53.0853193 45.1709571,50.8824857 C44.2585135,48.6796521 44.76287,46.1440809 46.4488458,44.4581051 C48.1348217,42.7721292 50.6703928,42.2677728 52.8732264,43.1802163 C55.07606,44.0926599 56.5123457,46.2422133 56.5123457,48.6265432 C56.5123457,51.8822959 53.8730366,54.5216049 50.617284,54.5216049 Z M75.617284,54.1975309 C73.2329541,54.1975309 71.0834006,52.7612452 70.1709571,50.5584116 C69.2585135,48.355578 69.76287,45.8200069 71.4488458,44.134031 C73.1348217,42.4480552 75.6703928,41.9436987 77.8732264,42.8561423 C80.07606,43.7685858 81.5123457,45.9181392 81.5123457,48.3024691 C81.5123457,51.5582218 78.8730366,54.1975309 75.617284,54.1975309 Z" id="Shape"></path>
            </g>
            <g id="chatbob-learnAsset-100" transform="translate(40.000000, 0.000000)">
                <path d="M42.9203077,16.3815385 C40.516613,7.41851149 32.6707583,0.982215399 23.4107726,0.377017733 C14.1507868,-0.228179934 5.53394743,5.1321767 1.98410381,13.7061029 C-1.56573981,22.2800291 0.740075854,32.1626684 7.71775467,38.2803149 C14.6954335,44.3979614 24.7947548,45.3914667 32.8307692,40.7507692 C41.326345,35.8514775 45.4662686,25.852333 42.9203077,16.3815385 Z M29.3344615,26.6233846 C28.8264482,27.1328641 28.1365537,27.4192103 27.4170769,27.4192103 C26.6976001,27.4192103 26.0077056,27.1328641 25.4996923,26.6233846 L22,23.1203077 L18.5036923,26.6233846 C17.995679,27.1328641 17.3057845,27.4192103 16.5863077,27.4192103 C15.8668309,27.4192103 15.1769364,27.1328641 14.6689231,26.6233846 L9.25353846,21.208 L13.0883077,17.3766154 L16.5846154,20.8763077 L20.0809231,17.3766154 C20.5889364,16.8671359 21.2788309,16.5807897 21.9983077,16.5807897 C22.7177845,16.5807897 23.407679,16.8671359 23.9156923,17.3766154 L27.4153846,20.8796923 L30.9218462,17.3766154 L34.7498462,21.208 L29.3344615,26.6233846 Z" id="Shape"></path>
                <path d="M11.1692308,44.9409231 L11.1692308,48.8332308 C14.1206154,50.2683077 23.5332308,54.0150769 32.8307692,48.8907692 L32.8307692,45.0458462 C29.64675,46.6352602 26.1340298,47.454895 22.5753846,47.4387692 C18.6423664,47.3963083 14.7600258,46.5461102 11.1692308,44.9409231 Z" id="Shape"></path>
                <path d="M32.8307692,43.1369231 L32.8307692,40.7372308 C26.1366176,44.6362551 17.8633824,44.6362551 11.1692308,40.7372308 L11.1692308,43.0793846 C14.1206154,44.5144615 23.5332308,48.2612308 32.8307692,43.1369231 Z" id="Shape"></path>
                <path d="M22.5753846,53.1926154 C18.6423664,53.1501544 14.7600258,52.2999564 11.1692308,50.6947692 L11.1692308,51.7846154 C11.1692308,57.7662841 16.0183313,62.6153846 22,62.6153846 C27.9816687,62.6153846 32.8307692,57.7662841 32.8307692,51.7846154 L32.8307692,50.7996923 C29.64675,52.3891064 26.1340298,53.2087411 22.5753846,53.1926154 Z" id="Shape"></path>
            </g>
        </g>
    </g>
</svg>