<?xml version="1.0" encoding="UTF-8"?>
<svg width="186px" height="156px" viewBox="0 0 186 156" version="1.1" xmlns="http://www.w3.org/2000/svg" xmlns:xlink="http://www.w3.org/1999/xlink">
    <!-- Generator: Sketch 51.1 (57501) - http://www.bohemiancoding.com/sketch -->
    <title>Group 8</title>
    <desc>Created with Sketch.</desc>
    <defs></defs>
    <g id="Welcome" stroke="none" stroke-width="1" fill="none" fill-rule="evenodd">
        <g id="Group-8" fill="#FFFFFF" fill-rule="nonzero">
            <g id="chatbob-loginAsset-97" transform="translate(0.000000, 61.000000)">
                <path d="M77.1467103,94.6969697 L47.8064202,94.6969697 C28.2057492,94.6455274 12.3363512,78.8065992 12.3106061,59.2693088 L12.3106061,35.4276609 C12.3363512,15.8903705 28.2057492,0.0514422531 47.8064202,0 L77.1467103,0 C96.7656874,0.0257365807 112.663574,15.8721744 112.689394,35.4276609 L112.689394,59.2693088 C112.663574,78.8247953 96.7656874,94.6712331 77.1467103,94.6969697 Z M47.8064202,5.45040937 C31.2073911,5.47613418 17.7576501,18.8823493 17.7318418,35.4276609 L17.7318418,59.2693088 C17.7576501,75.8146204 31.2073911,89.2208355 47.8064202,89.2465603 L77.1467103,89.2465603 C93.7457394,89.2208355 107.19548,75.8146204 107.221289,59.2693088 L107.221289,35.4276609 C107.19548,18.8823493 93.7457394,5.47613418 77.1467103,5.45040937 L47.8064202,5.45040937 Z" id="Shape"></path>
                <rect id="Rectangle-path" x="116.477273" y="33.1439394" width="8.52272727" height="27.4621212" rx="2.58"></rect>
                <rect id="Rectangle-path" x="0" y="33.1439394" width="8.52272727" height="27.4621212" rx="2.58"></rect>
                <path d="M89.7281994,35.9848485 L35.2718144,35.9848485 C32.9467046,35.9848448 30.7170521,36.9173366 29.0744132,38.5767438 C27.4317743,40.2361511 26.5110282,42.4862178 26.5151654,44.830887 L26.5151654,51.760022 C26.5110282,54.1046913 27.4317743,56.354758 29.0744132,58.0141653 C30.7170521,59.6735725 32.9467046,60.6060643 35.2718144,60.6060606 L89.7281994,60.6060606 C94.5668825,60.5973938 98.4848561,56.6394248 98.4848485,51.760022 L98.4848485,44.830887 C98.4848561,39.9514843 94.5668825,35.9935153 89.7281994,35.9848485 Z M51.2425711,55.2324457 C48.8352004,55.2324457 46.6648749,53.7700791 45.743614,51.5272451 C44.8223531,49.2844111 45.3315833,46.7027975 47.0338515,44.9862067 C48.7361197,43.2696158 51.2961932,42.756101 53.5203138,43.6851132 C55.7444343,44.6141255 57.1945995,46.8027118 57.1945995,49.2303378 C57.1945995,52.5452105 54.5297856,55.2324457 51.2425711,55.2324457 Z M76.4841573,54.9024869 C74.0767866,54.9024869 71.906461,53.4401203 70.9852001,51.1972863 C70.0639392,48.9544523 70.5731695,46.3728387 72.2754377,44.6562479 C73.9777059,42.939657 76.5377794,42.4261422 78.7619,43.3551544 C80.9860205,44.2841667 82.4361857,46.472753 82.4361857,48.900379 C82.4361857,52.2152517 79.7713718,54.9024869 76.4841573,54.9024869 Z" id="Shape"></path>
            </g>
            <g id="exclamation" transform="translate(109.000000, 0.000000)">
                <g id="Group">
                    <path d="M38.5,0 C17.2192754,0 0,17.2207793 0,38.5 C0,59.7807246 17.2207793,77 38.5,77 C59.7807246,77 77,59.7792207 77,38.5 C77,17.2192754 59.7792207,0 38.5,0 Z M38.5,70.984375 C20.5444121,70.984375 6.015625,56.4543848 6.015625,38.5 C6.015625,20.5444121 20.5456152,6.015625 38.5,6.015625 C56.4555879,6.015625 70.984375,20.5456152 70.984375,38.5 C70.984375,56.4555879 56.4543848,70.984375 38.5,70.984375 Z" id="Shape"></path>
                </g>
                <g id="Group" transform="translate(35.362963, 19.392593)">
                    <path d="M3.13703704,0.132409804 C1.40445148,0.132409804 0,1.48428824 0,3.15201765 L0,22.5972353 C0,24.2649647 1.40445148,25.6168431 3.13703704,25.6168431 C4.86962259,25.6168431 6.27407407,24.2649647 6.27407407,22.5972353 L6.27407407,3.15201765 C6.27407407,1.48428824 4.86962259,0.132409804 3.13703704,0.132409804 Z" id="Shape"></path>
                </g>
                <g id="Group" transform="translate(34.222222, 48.481481)">
                    <ellipse id="Oval" cx="3.99259259" cy="4.22488889" rx="3.99259259" ry="4.2"></ellipse>
                </g>
            </g>
        </g>
    </g>
</svg>