<svg xmlns="http://www.w3.org/2000/svg" viewBox="0 0 255.81 138.94"><defs><style>.cls-1{fill:#fff;}</style></defs><title>chatbob login 1Asset 127</title><g id="Layer_2" data-name="Layer 2"><g id="DESIGNED_BY_FREEPIK" data-name="DESIGNED BY FREEPIK"><path class="cls-1" d="M227.29,188.91H198a35.57,35.57,0,0,1-35.53-35.52V129.48A35.56,35.56,0,0,1,198,94h29.31a35.56,35.56,0,0,1,35.53,35.52v23.91A35.57,35.57,0,0,1,227.29,188.91ZM198,99.42a30.09,30.09,0,0,0-30.06,30.06v23.91A30.09,30.09,0,0,0,198,183.45h29.31a30.09,30.09,0,0,0,30.06-30.06V129.48a30.09,30.09,0,0,0-30.06-30.06Z" transform="translate(-150 -50)"/><rect class="cls-1" x="116.59" y="77.29" width="8.41" height="27.39" rx="2.58" ry="2.58"/><rect class="cls-1" y="77.29" width="8.41" height="27.39" rx="2.58" ry="2.58"/><path class="cls-1" d="M239.78,130H185.22a8.79,8.79,0,0,0-8.79,8.79v6.89a8.78,8.78,0,0,0,8.79,8.79h54.56a8.78,8.78,0,0,0,8.79-8.79v-6.89A8.79,8.79,0,0,0,239.78,130Zm-38.56,19.14a6,6,0,1,1,6-6A6,6,0,0,1,201.22,149.14Zm25.25-.34a6,6,0,1,1,6-6A6,6,0,0,1,226.47,148.8Z" transform="translate(-150 -50)"/><rect class="cls-1" x="140.71" y="108.94" width="31.67" height="30" rx="5" ry="5"/><rect class="cls-1" x="181.87" y="77.29" width="31.67" height="61.65" rx="5" ry="5"/><rect class="cls-1" x="224.14" y="51.41" width="31.67" height="87.53" rx="5" ry="5"/><path id="Search" class="cls-1" d="M305.07,129.5l15.09-15.09c1.37-1.37,1.25-3.74,0-6.11l6.61-6.73a28.75,28.75,0,1,0-5.36-5.36l-6.61,6.61c-2.37-1.25-4.87-1.38-6.24,0L293.35,118c-1.87,1.87-.88,6.11,2.37,9.23S303.07,131.5,305.07,129.5Zm23.07-66.72a22.66,22.66,0,1,1,0,32.05A22.66,22.66,0,0,1,328.14,62.78Z" transform="translate(-150 -50)"/></g></g></svg>