<?xml version="1.0" encoding="UTF-8"?>
<svg width="124px" height="129px" viewBox="0 0 124 129" version="1.1" xmlns="http://www.w3.org/2000/svg" xmlns:xlink="http://www.w3.org/1999/xlink">
    <!-- Generator: Sketch 51.1 (57501) - http://www.bohemiancoding.com/sketch -->
    <title>Group 9</title>
    <desc>Created with Sketch.</desc>
    <defs></defs>
    <g id="Welcome" stroke="none" stroke-width="1" fill="none" fill-rule="evenodd">
        <g id="Group-9" fill="#FFFFFF" fill-rule="nonzero">
            <g id="chatbob-loginAsset-98">
                <path d="M76.3888889,93.8425926 L47.4074074,93.8425926 C28.0464371,93.7916145 12.3711093,78.0955886 12.345679,58.7345679 L12.345679,35.1080247 C12.3711093,15.747004 28.0464371,0.0509781296 47.4074074,0 L76.3888889,0 C95.7679414,0.0255043795 111.471409,15.7289721 111.496914,35.1080247 L111.496914,58.7345679 C111.471409,78.1136204 95.7679414,93.8170882 76.3888889,93.8425926 Z M47.4074074,5.40123457 C31.0113713,5.42672728 17.72611,18.7119886 17.7006173,35.1080247 L17.7006173,58.7345679 C17.72611,75.130604 31.0113713,88.4158653 47.4074074,88.441358 L76.3888889,88.441358 C92.784925,88.4158653 106.070186,75.130604 106.095679,58.7345679 L106.095679,35.1080247 C106.070186,18.7119886 92.784925,5.42672728 76.3888889,5.40123457 L47.4074074,5.40123457 Z" id="Shape"></path>
                <rect id="Rectangle-path" x="115.216049" y="32.9475309" width="8.30246914" height="27.0679012" rx="2.58"></rect>
                <rect id="Rectangle-path" x="0" y="32.9475309" width="8.30246914" height="27.0679012" rx="2.58"></rect>
                <path d="M88.7345679,52.9783951 L34.7993827,52.9783951 C32.4857711,52.9783035 30.268026,53.9026308 28.6393167,55.5458303 C27.0106075,57.1890299 26.1059595,59.414875 26.1265432,61.7283951 L26.1265432,68.5339506 C26.1520157,73.3057379 30.0275275,77.1605618 34.7993827,77.1604938 L88.8117284,77.1604938 C93.6041006,77.1519816 97.4845755,73.264602 97.4845679,68.4722222 L97.4845679,61.7283951 C97.501151,59.4027067 96.5846048,57.1674619 94.9400529,55.52291 C93.2955011,53.8783582 91.0602563,52.961812 88.7345679,52.9783951 Z M50.617284,74.9691358 C47.3615313,74.9691358 44.7222222,72.3298268 44.7222222,69.0740741 C44.7222222,65.8183214 47.3615313,63.1790123 50.617284,63.1790123 C53.8730366,63.1790123 56.5123457,65.8183214 56.5123457,69.0740741 C56.5123457,72.3298268 53.8730366,74.9691358 50.617284,74.9691358 Z M75.617284,74.6450617 C72.3615313,74.6450617 69.7222222,72.0057527 69.7222222,68.75 C69.7222222,65.4942473 72.3615313,62.8549383 75.617284,62.8549383 C78.8730366,62.8549383 81.5123457,65.4942473 81.5123457,68.75 C81.5123457,72.0057527 78.8730366,74.6450617 75.617284,74.6450617 Z" id="Shape"></path>
            </g>
            <g id="chatbob-learnAsset-99" transform="translate(13.000000, 100.000000)">
                <polygon id="Shape" points="100 15.625 0 15.625 0 28.125 100 28.125"></polygon>
                <polygon id="Shape" points="0 21.875 100 21.875 100 28.125 0 28.125"></polygon>
                <path d="M62.5,0 C57.5625709,0.0142877531 52.924545,2.36953527 50,6.34765625 C47.075455,2.36953527 42.4374291,0.0142877531 37.5,0 L0,0 L0,6.25 L37.5,6.25 C42.6776695,6.25 46.875,10.4473305 46.875,15.625 L53.125,15.625 C53.125,10.4473305 57.3223305,6.25 62.5,6.25 L100,6.25 L100,0 L62.5,0 Z" id="Shape"></path>
            </g>
        </g>
    </g>
</svg>